<?xml version="1.0" encoding="utf-8"?>
<!-- Generator: Adobe Illustrator 26.0.1, SVG Export Plug-In . SVG Version: 6.00 Build 0)  -->
<svg version="1.1" id="Слой_1" xmlns="http://www.w3.org/2000/svg" xmlns:xlink="http://www.w3.org/1999/xlink" x="0px" y="0px"
	 viewBox="0 0 400 161" style="enable-background:new 0 0 400 161;" xml:space="preserve">
<style type="text/css">
	.st0{fill:#FFFFFF;}
	.st1{fill-rule:evenodd;clip-rule:evenodd;fill:#18181B;}
	.st2{fill-rule:evenodd;clip-rule:evenodd;fill:#FFFFFF;}
</style>
<g>
	<path class="st0" d="M83.1,14.5c2.8,0,7.5,2.3,14.1,7c2.8,8.1,4.2,12.5,4.2,13v0.7c0,6.4-8.6,11.8-25.7,16.2
		c0.9,2.9,1.5,5.8,1.7,8.8c1,1.7,1.5,3.7,1.4,5.6L66.5,70c-0.2,0-0.3-0.1-0.3-0.4l-9.5,1.1c-2.5-4.2-4.6-8.6-6-13.3l0.7-2.5v-1.8
		c0-2.1,0.1-4.2,0.3-6.3c0-0.3-0.4-3.9-1.1-10.9l-0.7,0.3h-0.4c-0.8,0-2.6-3.8-5.3-11.3c-0.5,0-0.9-1.1-1.1-3.2v-0.4
		c6.6-3.8,14.2-5.9,21.8-6c2.9,0.2,4.7,0.4,5.3,0.4L83.1,14.5z M65.2,31.7c0,2.3,0.4,3.5,1.1,3.5c0.9,0.2,1.9,0.4,2.8,0.4h7.4
		c4.5-0.4,6.7-1.1,6.7-2.1c-2.2-2.1-5.1-3.3-8.1-3.2C71.7,30.5,68.4,31,65.2,31.7z"/>
	<path class="st0" d="M135.3,13.4h10.6c0.5,0,3.1,7.7,7.8,23.2c0,1.9,1.5,7.7,4.6,17.6v12c-1.6,0.7-3.2,1.2-4.9,1.4H144
		c-0.5,0-1.3-1.6-2.5-4.9c-7.5-1.5-15.2-2.5-22.8-2.9c-2.2,0-3.6,1.2-4.2,3.5c0,1.3-3.1,2.7-9.2,4.2h-4.6c-1.9-4.3-2.8-7-2.8-8.1
		V47.7c3.4-6,10.8-15.8,22.2-29.6C124.9,16.4,130.1,14.7,135.3,13.4z M133.9,29.9c-0.1,0.6-3.5,5.9-10.2,15.8
		c0.9,0.5,5.6,1.3,14.1,2.5c-0.7-6.2-1.9-12.3-3.5-18.3C134.3,29.9,133.9,29.9,133.9,29.9z"/>
	<path class="st0" d="M177.7,12.7h1c2.6,7,3.9,11,3.9,11.9v10.2c0,3-0.2,8-0.7,15.1h0.4c7.1-1,14.3-1.6,21.5-1.8
		c3.3,0,4.9,1.1,4.9,3.2c1.2,3.2,2.1,6.5,2.8,9.9v3.2c0,1.1-4.1,3-12,5.6l-14.7-1.3l-17.6,1.4c-4.7-9.2-7-16.5-7-21.8v-24l-0.4-2.1
		c0.8-1.4,3.7-3.5,8.8-6.3C171.5,14.7,174.6,13.6,177.7,12.7z"/>
	<path class="st0" d="M231.3,13.4h0.4c0.5,0,1,0.9,1.4,2.8c6.1-0.2,13.3-0.8,21.5-1.8v0.3l3.2,11.3v0.4c-0.8,0.8-5.2,2.2-13,4.2
		c-4.1,0.2-6.7,0.3-7.7,0.3v4.6h0.3c2,0,8-0.8,18-2.5c1.1,0,2.5,4.1,4.2,12.3c-6.9,2.6-14.1,4.2-21.4,4.9l0.3,3.5l20.1-1.8
		c1.4,4,2.6,8.2,3.5,12.3c-7,2.9-14.6,4.3-22.2,4.3c-6.7,0.7-13.4,1.8-20.1,3.2c-1.4-1.3-3.4-5.7-6-13.4c0-0.2,0.1-0.4,0.3-0.4
		c-0.6-1.1-0.9-2.3-1.1-3.5l3.5-31.7c-0.2-0.8-0.4-1.7-0.4-2.5C216.1,18,221.2,15.7,231.3,13.4z"/>
	<path class="st0" d="M54.4,88.5l3.5,2.1c7,5.1,10.6,8.8,10.6,10.9c1.1,2.6,2,5.3,2.8,8.1v0.7l-11.6,4.2c-5.4-5.7-9-8.6-10.9-8.8
		c-4.6,1.2-7.5,2-8.8,2.4l0.4,0.7c0,1.2-0.1,2.9-0.4,5.3l0.7,0.3h4.9c10.2,0,17.2,1.9,21.1,5.6l5.6,18.3v2.5c0,0.7-6,3.4-18,8.1
		c-5.5-1.5-11.2-2.2-16.9-2.1h-2.8c-2.6,0-7.7,0.4-15.5,1.1c-2.9-6.2-4.6-10.2-4.9-12v-0.3c0.5-1,4.4-2.8,11.6-5.6
		c1.4,0,3.9,0.1,7.4,0.3l2.5-0.3l9.9,0.7c0.3-0.2,0.7-0.3,1.1-0.4h1.4c0-1.6-1.4-2.5-4.2-2.5c-13.4-1.7-20.6-2.5-21.5-2.5
		c-5.2-12.7-7.8-20.3-7.8-22.8v-1.4c0.6,0,2.2-0.9,4.9-2.8C40.3,91.8,51.9,88.5,54.4,88.5z"/>
	<path class="st0" d="M115.1,92.4c2.9,0.2,5.8,0.4,8.8,0.4c1,0,2.9,5.3,5.6,15.8l0.3,1.7c-1.2,1-4.6,2.8-10.2,5.3
		c-25.1-2.3-39.5-3.7-43.3-4.2c-0.7-0.5-2.4-4.5-4.9-12c6.8-3.3,12.3-4.9,16.6-4.9C89.8,94.5,98.8,93.8,115.1,92.4z M96.8,114.5
		c1.1,0,5,0.9,11.6,2.8c0.6,0,1.3,0.8,1.8,2.4c1.6,5.9,2.5,9,2.5,9.2c-1.3,4.1-2,8.4-2.1,12.7c0,1.8-5.6,4-16.9,6.7
		c-3.7-7.7-6.4-15.9-8.1-24.3c-0.8-1.4-1.3-2.9-1.4-4.6C84.6,119.5,88.8,117.8,96.8,114.5z"/>
	<path class="st0" d="M217.8,92c17.1,0,25.7,1.3,25.7,3.9c3.8,9.3,5.6,14.6,5.6,15.8c0,5.4-2.1,8.9-6.3,10.6
		c-3.9,1.6-6.3,2.8-7.1,3.5c7.5,2.2,11.3,4.5,11.3,7l3.2,9.5c-0.6,0-1.8,1.1-3.5,3.2c-7,2.4-10.8,3.5-11.3,3.5
		c-1-1.5-9.2-5.6-24.6-12.3l0.3,4.9c0,1.5-1.6,2.6-4.9,3.2c-3,1.7-5,2.5-6,2.5c-2.4-6.6-3.5-10.6-3.5-12c0-6.2-0.1-16.4-0.4-30.6
		c-1.4-4.8-2.1-7.3-2.1-7.4c7.9-3.3,13-4.9,15.5-4.9C212.4,92.1,215.1,92,217.8,92z M212.1,107.9v5.3c13.1-1,19.7-1.8,19.7-2.5
		c0.2-0.4,0.3-0.9,0.3-1.4V109c-5.8-0.8-11.7-1.1-17.6-1.1H212.1z"/>
	<path class="st0" d="M269.5,88.9c3.5,1,5.3,1.7,5.3,2.1c2.1,7.1,3.2,11,3.2,11.6v0.3c-7,3.1-14.2,5.8-21.5,8.1
		c-1.8,0-4.2-4.2-7.1-12.7v-0.4c0.8-2.3,3.4-4.3,7.8-6C261.3,90.7,265.4,89.7,269.5,88.9z M268.1,109h0.3c0.7,0,1.9,2.9,3.5,8.8
		c0.3,0.1,0.8,1.2,1.4,3.2l-0.4,1.8v1.7c0,2,0.2,7.2,0.7,15.5c0,3.7-1.3,5.6-3.9,5.6c-6.6,2.1-11,3.2-13.4,3.2
		c-0.8-0.6-2.6-5.2-5.6-13.7v-0.5l3.9-19c0.3,0,1.4-1.2,3.5-3.5C258.8,112.1,262,111,268.1,109L268.1,109z"/>
	<path class="st0" d="M295.5,91.7h0.4c0.5,0,1,0.9,1.4,2.8c6.1-0.2,13.3-0.8,21.5-1.7v0.4l3.2,11.3v0.4c-0.8,0.8-5.2,2.2-13,4.2
		c-4.1,0.2-6.7,0.3-7.7,0.3v4.6h0.3c2,0,8-0.8,18-2.5c1.1,0,2.5,4.1,4.2,12.3c-6.9,2.6-14.1,4.2-21.5,4.9l0.3,3.5l20.1-1.8
		c1.4,4,2.6,8.2,3.5,12.3c-7,2.8-14.6,4.3-22.2,4.2c-6.7,0.7-13.4,1.8-20.1,3.2c-1.5-1.3-3.5-5.7-6-13.4c0-0.2,0.1-0.4,0.3-0.4
		c-0.6-1.1-0.9-2.3-1.1-3.5l3.5-31.7c-0.2-0.8-0.3-1.7-0.4-2.5C280.4,96.3,285.4,93.9,295.5,91.7z"/>
	<path class="st0" d="M367.8,88.5l3.5,2.1c7,5.1,10.6,8.8,10.6,10.9c1.1,2.6,2,5.3,2.8,8.1v0.7l-11.6,4.2c-5.4-5.7-9-8.6-10.9-8.8
		c-4.6,1.2-7.5,2-8.8,2.4l0.4,0.7c0,1.2-0.1,2.9-0.4,5.3l0.7,0.3h5c10.2,0,17.2,1.9,21.1,5.6l5.5,18.3v2.5c0,0.7-6,3.4-18,8.1
		c-5.5-1.5-11.2-2.2-16.9-2.1H348c-2.6,0-7.7,0.4-15.5,1.1c-2.9-6.2-4.6-10.2-5-12v-0.3c0.5-1,4.4-2.8,11.6-5.6
		c1.4,0,3.9,0.1,7.4,0.3l2.5-0.3l9.9,0.7c0.3-0.2,0.7-0.3,1.1-0.4h1.4c0-1.7-1.4-2.5-4.2-2.5c-13.4-1.7-20.6-2.5-21.5-2.5
		c-5.2-12.7-7.8-20.3-7.8-22.8v-1.4c0.6,0,2.2-0.9,4.9-2.8C353.6,91.8,365.3,88.5,367.8,88.5z"/>
	<path class="st1" d="M182.1,151.6c0.9,0.1,2.2,1.1,3,0.5s-0.7-5.4-0.9-7.3c-0.3-3.2-0.3-6.4,0.2-9.6c-0.6-0.2-0.4-0.4-0.4-0.7
		c-0.1-1.1-0.2-2.3-0.1-3.4c0.1-2.1,0.5-4.1,0.6-6.5c0-5.9-0.4-12.2-0.1-17.8c0-1.3-0.1-2.5,0.1-3.5c0.1-0.6,0.4-1.3,0.6-2
		c0.2-0.7,0.6-1.3,0.4-2.1c-0.4-1.1-1-2.2-1.8-3.2c-0.8-1.3-1.3-2.4-1.8-3.3c-1-1.5-2.1-2.9-3.3-4.2c-1.1-1.4-2.6-3.5-4.2-3.3
		c-0.2,0-0.2,0.2-0.3,0.2c-0.2,0,0,0.2-0.1,0.1c-3.3-0.3-6.7,0.2-9.8,1.4c-1,0.3-2.1,0.6-3.1,1c-3.8,1.3-7.4,3.1-10.8,5.3
		c-1.7,1-4.3,1.3-5.8,2.4c-0.3,0.2-0.5,0.7-0.8,1.1c-0.4,0.4-0.9,0.5-1.1,0.8c-0.7,1.2-1.3,2.6-1.5,4c-2.3,7.3-2.4,15.7-4.7,23
		c-0.7,2.2-1.2,4.4-1.6,6.7c-0.3,0.8-0.3,1.7-0.2,2.6c0.6,2,2.7,4.4,4.1,6.3c2.4,3.3,4.7,5.2,6.4,8.8c0.5,0.9,1.2,3.8,1.8,4.3
		c1,0.5,2,0.8,3.1,0.9c0.7,0,1.1-0.5,1.7-0.6c1.6-0.1,3.2-0.2,4.8-0.1c4.8,0.1,9.6-0.2,14.3-0.9c2.8-0.3,5.3-0.8,8.5-0.9
		C180.2,151.7,181.1,151.6,182.1,151.6z"/>
	<path class="st2" d="M175,89.6c0.3,0,0-0.7,0.6-0.5c1.4,1.4,2.5,3.2,4,4.5c0.1,2.3,3.2,3.6,3.6,5.4c0.1,0.5-0.3,1.4-0.5,1.3
		c-0.6-0.1-1.5-2.2-1.9-2.8C179.1,94.7,176.8,92,175,89.6z"/>
	<path class="st2" d="M173.8,90.1c0.1,0,0.2,0.1,0.3,0.3c0,1-1.3,1.5-2,2.1c-1.5,1.3-3.2,2.5-4.7,3.9c-0.7,0.7-1.1,1.7-2.2,1.8
		c-0.1-1.1,1-1.6,1.6-2.2C169,93.9,171.5,91.9,173.8,90.1z"/>
	<path class="st2" d="M167,90.4c-2.7,0.9-4.7,2.4-7.5,3.2c0.1-0.6,0-1.3-0.2-1.9C161.9,91.3,164.3,90.7,167,90.4z"/>
	<path class="st2" d="M175.3,91.8c-3.2,2.3-6.3,4.8-9.2,7.5c-0.2-1.3,1.1-1.6,1.8-2.1c2.2-1.7,4.6-3.8,6.9-5.4c0-0.1,0.2,0,0.2-0.2
		C175,91.6,175.1,91.8,175.3,91.8z"/>
	<path class="st2" d="M176,93.1c-2.9,2.1-5.6,4.5-8.2,7c-0.3,0.3-0.5,1-1.1,0.8c-0.6-0.8,0.2-1,0.5-1.3c2.5-2.3,5.7-4.6,8.2-7
		C175.8,92.4,175.7,93,176,93.1z"/>
	<path class="st2" d="M158.7,91.9c0.4,0.6,0.3,2.5-0.7,2.5C157.5,93.3,157.7,92,158.7,91.9z"/>
	<path class="st2" d="M176.6,94c0.4,0.8-0.4,1.1-0.8,1.3c-2.9,2.3-5.7,4.7-8.3,7.3c-0.8-1.1,0.8-2.4,1.5-3c2.3-1.9,5.5-3.9,7.3-5.8
		C176.5,93.8,176.6,93.9,176.6,94z"/>
	<path class="st2" d="M156.8,92.6c0.2,0.9,0.3,2.4-0.9,2.3c0.1-0.6,0.1-1.3,0-1.9C156.2,92.8,156.7,92.9,156.8,92.6z"/>
	<path class="st2" d="M166,94.2c0.2,0,0.3,0.1,0.2,0.1c-0.1,1.9-2,2.1-2.3,3.8c0,0.5,0.5,0.3,0.6,0.6c-0.1,1.1,1,1.9,0.3,2.7
		c0.3,0.4,0.6-0.2,0.8,0.2c2.1,4.4,2.8,10.6,6.1,13.4c0.1,0.7,0.2,1.4,0.2,2.2c-3.1,2-7.7,2.7-9.1,6.3c-0.8,0.2-1.1,0.8-1.8,1.1
		c-0.5-0.1-1-0.2-1.5-0.1c-2.7-5.4-7.3-8.3-10.9-12.5c-0.9-2.6-1.5-5.6-2.5-8c2.1-2.7,6-3.6,9.5-4.9C159.2,97.5,162.7,95.9,166,94.2
		z M162.6,102.6c0.7-0.1,1.1-0.5,0.7-1.6C161.8,99.7,161.4,101.6,162.6,102.6z M159.2,105.6c-0.2-0.7-0.9-1.1-1.5-0.9l0,0
		C155.4,105.3,160.2,108.3,159.2,105.6L159.2,105.6z M161.9,107.5c-0.4-0.2-0.3,0.2-0.6,0.2c0,0.6,0.3,1.1,0.8,1.5
		c1.8,0.3,1.3-2-0.1-2.5C161.5,106.5,161.6,107,161.9,107.5L161.9,107.5z M155.7,109c0.5-0.1,0.4-0.9,0-1.5c-0.1,0-0.3,0-0.3-0.2
		C154,107,154.7,109,155.7,109L155.7,109z M150.4,110c0.7-0.7,1.7-1.3,1.9-2.5C150.8,107.5,150.8,108.9,150.4,110L150.4,110z
		 M151.8,111.2c1.7-0.2,2.1-1.5,2.7-2.7C152.9,108.4,152.2,109.9,151.8,111.2L151.8,111.2z M152.9,112.9c1.4-0.7,2.6-1.8,3.3-3.1
		C154.5,109.9,153.1,111.2,152.9,112.9L152.9,112.9z M154.4,113.3c1.6-0.2,2.1-1.2,2.9-2c0-0.2-0.2-0.3-0.4-0.4
		C156.1,111.7,155.1,112.4,154.4,113.3L154.4,113.3z M161.9,116.5c0.5,0.5,1.3,0.6,1.5,0.1c-0.1-0.4-0.2-0.7-0.4-1
		C162.1,115.1,161.3,115.4,161.9,116.5L161.9,116.5z M160.8,117.9c-0.1-0.8-0.8-0.9-1.3-1.6C155.3,115.2,161,120.7,160.8,117.9
		L160.8,117.9z M159.7,120.9c0.9-0.2,0.9-1.2,1.3-1.9C160.2,119.3,159.4,119.5,159.7,120.9L159.7,120.9z M160.3,122.1
		c1-0.5,1.6-1.4,1.9-2.5C161.1,119.5,160.2,121,160.3,122.1L160.3,122.1z"/>
	<path class="st2" d="M177.3,95.2c0.3,0,0.2,0.4,0.5,0.4c-2.6,2.3-4.5,5.3-8.3,6.6c0.3-0.8,0.9-1.4,1.6-1.9
		C173.3,98.7,175.3,97,177.3,95.2z"/>
	<path class="st2" d="M154.8,93.4c0.2,0.8,0.4,2.4-0.7,2.3c0-0.6,0-1.3,0-1.9C154.3,93.7,154.7,93.7,154.8,93.4z"/>
	<path class="st2" d="M178.1,96.5c0.4,0.1,0.5,0.6,0.7,0.8c-1.6,1.6-3.3,3.4-4.9,5l-0.2,0.1c-1.6,1-3.9,1.3-5.1,2.8
		c1.9-0.1,2.8-1.6,4.3-1.6c0.6-0.4,1.3-1.3,2.3-0.9c0-0.3-0.3-0.4-0.6-0.4c1.4-1.5,3.2-2.6,4.5-4.1c0.5,1,1.6,1.8,1.8,2.8
		c-0.1,1.4-0.4,2.7-0.9,3.9c-0.3,0.5-0.9,0.5-1,0.9c-0.2,0-0.2-0.4-0.5-0.4c-3.2,1-5.2,3-8.1,4.3c0-0.5-0.4-0.6-0.4-1
		c3.1-1.3,5.8-3,8.8-4.5c-1.9-0.4-3.5,0.7-4.8,1.5c-1.4,0.8-2.8,1.7-4.1,2.5c-0.4-0.2-0.5-0.8-0.7-1.3c2.5-1.1,5-2.3,7.4-3.6
		c-2.7,0.4-5.3,1.6-7.5,3.2c-0.6-1-1.1-2.2-1.6-3.2c0.9-0.4,1.9-0.6,2.8-0.8c0.6,0.1-0.3,0.3,0.1,0.9c1.3,0,1.5-1.9,3.3-1.8
		c0-0.3-0.2-0.3-0.4-0.3C174.5,99.4,176.7,98.3,178.1,96.5z M176.8,102.3c1.2-0.7,2.1-1.8,2.6-3
		C178.4,100.2,177.5,101.2,176.8,102.3z"/>
	<path class="st2" d="M152.8,94.4c0.4,0.4,0.6,2.4-0.3,2.2C152.6,95.9,152.2,94.7,152.8,94.4z"/>
	<path class="st2" d="M150.3,95.8c0.2,0.7,0.2,1.5-0.1,2.1C149.8,97.2,149.8,96.1,150.3,95.8z"/>
	<path class="st2" d="M148.8,96.5c0.3,0.7,0.2,1.4-0.1,2C148.6,97.9,148.6,97.2,148.8,96.5z"/>
	<path class="st2" d="M144.4,99c0.3,0.3,0.4,1.3-0.2,1.1c0-0.2-0.1-0.5-0.3-0.5C143.9,99.3,144.4,99.4,144.4,99z"/>
	<path class="st2" d="M181.8,104.4c0.3,2.4-0.3,4.9,0,7.5c-0.9-0.6-2.1-0.8-3.1-0.4c0.6,1,2.3,0.8,3.1,0.7c0,3-0.1,6-0.2,8.9
		c-0.4,0.1-1.9-1.2-2.6-1.8c-0.4-2.8-1.3-5-2.9-6.4c1.1-2,2.7-3.7,3.4-6.1C180.5,106.7,181.2,105.4,181.8,104.4z M178.2,113.9
		c0.1,0.9,1.1,0.6,1,0.1C178.7,114,178.6,113.8,178.2,113.9z"/>
	<path class="st2" d="M175.8,108.7c0.3,0,0.2,0.1,0.2,0.3c-0.5,0.5-1,1.1-1.3,1.8c-1.4-0.3-2.2,0.9-3,1.5c-0.3-0.3-0.5-0.6-0.6-0.9
		C172.8,110.6,174.4,109.8,175.8,108.7z"/>
	<path class="st2" d="M145.4,106.4c1.1,2.4,1,4.3,2.1,6.3c1.1,1.9,3.2,3.3,4.7,4.8c3,2.8,5.7,6,8,9.4c0.2,1.9,0.9,3.8,2,5.5
		c-1.9,1-6.7-0.5-8.2,0.9c-0.8-0.4-1.7-0.1-2.2,0.6c-3.2-0.7-6.6-0.3-9.6,1.3c-1.3-2.2-2.5-4.4-3.5-6.7c0.9-1.5,1.6-3.2,2.2-4.8
		c0.8,1.3,1.5,2.7,2.3,4c0,0.5-1,0.1-0.8,0.8c0.4,1.3,1.4,0.7,1.9,0.8c0.4,0.5,0.5,1.1,0.6,1.7c0.6,0.2,0.4-0.4,0.4-0.8
		c1.3,0.9,1.9-0.3,1.7-1.1c-0.2-0.7-1-1.1-1.7-0.9c-0.3,0.1-0.5,0.2-0.7,0.5c-0.4-1.8-2.9-4.1-3.2-6c-0.2-1.1,0.9-2.9,1.2-3.9
		C143.7,114.7,144.7,110.2,145.4,106.4z M149.8,123.9c-0.4-0.7-1.3-1-2.1-0.7C145.4,124.3,151.5,127,149.8,123.9z M144.5,125.1
		c0.5,0.5,1.2,0.5,1.7,0.2C146.3,123.8,143.5,123.5,144.5,125.1L144.5,125.1z M151.9,129.8c0.6-1.5,0.8-3.2,0.6-4.9
		c-0.1-0.1-0.2-0.2-0.3-0.2C151.8,126.1,150.8,128.2,151.9,129.8L151.9,129.8z M153.4,130c0.7-1.5,1-3.2,0.8-4.9h-0.4
		C153.8,126.8,152.7,128,153.4,130L153.4,130z M154.9,129.6c0.7-0.7,0.4-2.3,0.6-3.5C154.5,126.5,154.5,128.4,154.9,129.6
		L154.9,129.6z M156.6,129.9c0.8-0.5,0.6-2,0.5-3.4h-0.4C156.4,127.6,156.3,128.8,156.6,129.9L156.6,129.9z"/>
	<path class="st2" d="M173.9,112.9c0.1,0.6-0.2,1.3-0.7,1.7c-0.3-0.2,0-0.7-0.4-1C173.2,113.4,173.4,113,173.9,112.9z"/>
	<path class="st2" d="M175,114c1.8,1,1.2,3.5,2.1,5.3c-0.9-0.2-1.7-0.7-2.5-1C174.9,117.1,174.7,115.4,175,114z"/>
	<path class="st2" d="M138.3,129.6c1,2.1,2.2,4.1,3.2,6.3C140.3,134.2,138.4,131.8,138.3,129.6z"/>
	<path class="st2" d="M137.9,132c1,1.4,1.6,3.2,2.6,4.5c0.1,0.5-0.4,0.5-0.7,0.6c0.3,0.6,0.5-0.1,1,0c2.9,4,5.9,7.9,7.7,13.3
		c-2.8-2.5-4.3-6.4-6.5-9.7c-0.7-1-1.8-2-2.3-3C138.6,135.9,138.7,134,137.9,132z"/>
	<path class="st2" d="M142,136.7c0.7,0.7,1.2,1.6,1.6,2.5C143,138.4,142.4,137.6,142,136.7z"/>
	<path class="st2" d="M178.9,149.7c-2,0.1-3.9,0.3-5.9,0.6C173.1,148.6,177.1,148.3,178.9,149.7z"/>
	<path class="st2" d="M172.2,148.9c0.1,1-1.3,1.6-2.5,1.7C169.3,149.4,170.7,148.8,172.2,148.9z"/>
	<path class="st2" d="M168.3,149.3c0.3,0.5-0.7,1.5-1.6,1.5C166.9,150.1,167.5,149.5,168.3,149.3z"/>
	<path class="st2" d="M165.3,149.8c0.2,1.5-3.8,0.5-5.2,0.5C161.9,150.3,163.6,150.1,165.3,149.8z"/>
	<path class="st2" d="M167.9,93.1c0,0.4-0.7,1.3-1.4,1C166.8,93.6,167.6,93.5,167.9,93.1z"/>
	<path class="st2" d="M143,100.7c1.3,3.8-0.1,6.1-0.9,8.6l-1.8,6.1C140.8,110.5,141.7,105.5,143,100.7z"/>
	<path class="st2" d="M178.6,106c0.2,0.7-1,1-1.6,1.3C177,106.8,178.2,106.5,178.6,106z"/>
	<path class="st2" d="M172.2,109.9c0.1-0.1-1,0.9-1.3,0.8C171,110.1,171.7,110.1,172.2,109.9z"/>
	<path class="st2" d="M174.3,110.9c0.4,0.6-0.7,0.7-0.8,1.1C173.3,111.6,174.2,111.4,174.3,110.9z"/>
	<path class="st2" d="M179.3,136c-0.3,1.8-3.9,2-6.1,2.6s-3.6,1.1-5.6,1.6c0.5,0.9,2,0.2,2.7,0c2.5-0.7,5.4-1.6,7.8-2.3
		c-0.8,1.5-3.1,1.3-4.9,1.8c-1.6,0.5-3.2,1.1-4.7,1.8c0.8,0.8,1.7,0,2.3-0.2c2.3-0.9,4.6-1.5,7-1.9c0.5-0.6,1.7-0.4,2.2-0.9
		c-0.3-0.3-0.9-0.1-1.1,0c0.9-1.4,1.9-2.7,3.2-3.8c0.2,1.9-0.5,3.8-1.7,5.1c-0.7,0.7-1.3,1.9-2,2.2c-0.9,0.2-1.8,0.4-2.6,0.5
		c-2.3,0.6-4.8,1.4-7.2,2c1.3,0.7,3.4-0.2,5.3-0.7s3.2-1.3,4.8-1.1c0.5-0.2,0.7-0.8,1.5-0.7c-0.3-0.6,0-0.8,0.4-1.3
		c0.2,0.6-0.2,1.4-0.3,2.1c-4.7,0.1-7.7,2.2-11.8,2.5c-0.2,0.2-0.2,0.5,0.1,0.9c-1.4,0-2.3,0.5-3.8,0.5c0.9-1.9,0.8-4.6,1.7-6.5
		c-0.2-0.4-0.1,0.3-0.5,0.1c0.2-4-2.5-8.7-3.1-13c1-0.5,1.3-1.6,1.8-2.5c1.7,0,2.2-1.1,3.2-1.7c2.8-0.2,3.6-2.1,5.3-3.3
		c2.4,0.5,4.3,1.8,7.1,1.8c2.2,1.5,1.6,3.9,1.6,6.6c0.1,1.8,0.1,3.4,0.2,4.8c-1.3,1.1-1.6,2.9-4.3,2.8c0.1-0.6,0.8-0.7,1.5-0.8
		c0.1-0.3-0.6-0.4-0.5-0.2c-0.2-0.5,0.4-1.3,1.3-1.3c-0.5-0.8,0.4-1,0.4-1.6c-1.9-0.1-3.7,0.1-5.5,0.5c-0.5-0.9,2.2-1.5,3.6-1.2
		c-0.5-0.6-1.8-0.4-2.4-0.4c-0.4-0.7,1.3-1.3,1.4-2.1c-1.2,0.5-2.3,1.3-3.2,2.2c-2.9,0.3-5.1,1.2-8,1.4c0.3,0.7,1.1,0.5,1.5,0.5
		c2,0.1,3.9-1.2,5.7-0.9c0.5,0.9-0.8,0.7-1.3,0.8c-1.6,0.3-3.8,0.8-5.4,1.3c1,0.9,2.5,0.4,3.6,0.2c3-0.6,6.4-1.4,9.4-2
		c-0.5,1.3-2.5,1-4.4,1.4c-2.9,0.5-5.9,1.5-8.7,2.1c0.7,1.1,2.1,0.4,2.8,0.3c2.8-0.6,5.9-1.4,8.4-2.1c0.5,0.3-0.4,0.8-0.6,1.1
		c-3,0.3-5.9,0.9-8.8,1.9c-0.8,0.2-1.7,0.6-2.4,1.1c1.8,0.3,3.5-0.5,5.2-0.9s3.6-0.9,5.2-1.3c-3.1,1.3-6.8,1.9-10,3.1
		c0.9,0.8,1.9,0.2,2.7,0c2.4-0.6,5-1.5,7.5-2C177.5,136.5,178.7,136.5,179.3,136z M176.9,123.4c-1.4,0.2-2.7,0.9-3.8,1.9
		c-0.7,0.6-1.8,1.1-1.7,2.2c0.8,0.4,1.1-0.4,1.5-0.7c0.9-0.8,1.9-1.5,3-2.1c0.5-0.3,1.3-0.5,1.4-1.1
		C177.2,123.4,177,123.4,176.9,123.4L176.9,123.4z M168.6,125.2c0-0.2,0.1-0.2-0.2-0.3c-0.7,0.9-2.7,0.6-2.9,2
		C166.9,126.6,167.5,125.6,168.6,125.2z M177.5,126.4c-1.2,0.3-2.3,0.9-3.2,1.9c-0.6,0.6-1.6,1.3-1.6,2.3c1.1,0,1.8-1.1,2.6-1.8
		c0.7-0.9,1.6-1.6,2.6-2C177.8,126.7,177.7,126.5,177.5,126.4L177.5,126.4z M167.9,129.5c1,0,1.2-1.7,0.8-2.3
		C168.5,128,167.4,128,167.9,129.5L167.9,129.5z M166.1,129.8c1-0.3,1.1-1.5,1.5-2.4C166.3,127.7,166,128.5,166.1,129.8L166.1,129.8
		z M167.6,143.1c2.2,0.6,4.1-0.3,5.9-0.7c0.9-0.2,1.9-0.5,2.7-0.8c0.8-0.2,1.7-0.6,2.4-1C174.8,140.8,171,141.6,167.6,143.1
		L167.6,143.1z"/>
	<path class="st2" d="M153.9,134.9c-1.7,1.8-3.6,3.3-4.8,5.6c0.8,0.1,1.1-0.8,1.5-1.3l1.4-1.5c0.9-1.1,2-2,3.3-2.6
		c0.4,0.4-0.2,0.7-0.4,0.9c-1.6,1.8-3.9,3.8-4.7,6.3c2.3-2.3,4.3-4.9,6.7-7.1c0.4,0.1,0.8,0.1,1.3,0c-2,2.5-4.6,4.5-6.3,7.4
		c0.9-0.2,1.4-1.1,2-1.7c1.8-2,3.9-3.9,5.6-5.9c0.7,0,0.9-0.4,1.8-0.2c-2.6,2.4-5,5.1-6.9,8.1c3.1-2.7,5.8-6.3,8.5-8.9
		c0,1,0.9,2.2,0.8,3.2c0,0.6-1.3,1.5-1.7,2c-1.8,1.8-3.4,3.9-4.7,6.1c2.5-2,4.4-5.3,6.6-7.2l0.4,1.7c-1.1,0.9-2.1,1.9-3,3
		c-1.1,1-1.9,2.2-2.4,3.6c1.4-0.2,1.9-1.9,2.8-2.9c0.8-1,1.8-2,2.8-2.8c0,1.1-0.9,1.7-1.5,2.4s-1.5,1.3-1.4,2.3
		c1.2-0.1,1.5-1.9,2.5-2.5c0.3,1.3-0.4,2.7-0.1,4.4c-5.1,0.6-10.9,0.6-14.5,2.5c-2.2-4.4-4.2-9.1-6.7-13.2c0.9-2.5,7-0.8,10.2-1
		C153.7,135.5,153.4,134.9,153.9,134.9z M163,136c0.1,0,0.1-0.2-0.2-0.2c-2.4,2-4.6,4.3-6.4,6.9c-0.8,0.7-1.3,1.7-1.5,2.8
		C157.8,142.4,160.5,139.3,163,136z M149.4,138.5c-0.6,1.2-3,2.1-2.2,3.8c1-1.2,1.8-2.4,2.5-3.8H149.4z"/>
	<path class="st2" d="M179.5,143.4c0.6,0.6-0.9,1-0.8,1.8c0.5,0.9,0.7-0.8,1,0c-0.2,0.5-0.3,1-0.4,1.5c-1.4,0-2.5-0.3-3.9-0.5
		c0.2-0.4,0.9-0.4,1-0.8c-2,0.5-4,0.8-6.1,0.8C173.3,145.2,176.8,144.7,179.5,143.4z"/>
	<path class="st1" d="M171.8,134c-0.1-1.3-0.1-2.6,0-3.9c-0.2-0.1-0.1-0.2-0.2-0.3c0-0.5,0-0.9,0-1.4c0-0.8,0.2-1.7,0.2-2.6
		c0-2.4-0.2-4.9,0-7.2c0-0.5,0-1,0-1.4s0.2-0.5,0.2-0.8c0.1-0.3,0.2-0.5,0.2-0.9c-0.2-0.5-0.4-0.9-0.7-1.3c-0.3-0.5-0.5-1-0.7-1.3
		c-0.4-0.6-0.9-1.2-1.4-1.7c-0.4-0.6-1.1-1.4-1.7-1.3c-0.1,0-0.1,0.1-0.1,0.1l0,0c-1.3-0.1-2.7,0.1-4,0.6c-0.4,0.1-0.9,0.3-1.3,0.4
		c-1.5,0.5-3,1.3-4.3,2.2c-0.7,0.4-1.7,0.5-2.3,1c-0.1,0.1-0.2,0.3-0.3,0.4s-0.4,0.2-0.5,0.3c-0.3,0.5-0.5,1-0.6,1.6
		c-0.9,2.9-1,6.3-1.9,9.3c-0.3,0.9-0.5,1.8-0.6,2.7c-0.1,0.3-0.1,0.7-0.1,1.1c0.4,0.9,1,1.8,1.7,2.5c1,1.1,1.8,2.3,2.6,3.5
		c0.2,0.6,0.4,1.2,0.7,1.7c0.4,0.2,0.8,0.3,1.3,0.4c0.3,0,0.4-0.2,0.7-0.3c0.6,0,1.3,0,1.9,0c1.9,0,3.9-0.1,5.8-0.4
		c1.1-0.1,2.1-0.3,3.4-0.4c0.4-0.1,0.8-0.1,1.3-0.1c0.4,0.1,0.9,0.5,1.3,0.2C172.6,136.6,171.9,134.8,171.8,134z"/>
	<path class="st2" d="M169.1,131.6c-0.1-0.9-0.1-1.8,0-2.7c-0.2,0-0.1-0.1-0.1-0.2c0-0.3,0-0.6,0-1c0-0.6,0.2-1.1,0.2-1.8
		c0-1.6-0.1-3.4,0-5c0-0.4,0-0.7,0-1s0.1-0.4,0.2-0.6c0.1-0.2,0.2-0.4,0.1-0.6c-0.1-0.3-0.3-0.6-0.5-0.9s-0.4-0.7-0.5-0.9
		c-0.3-0.4-0.6-0.8-0.9-1.2c-0.3-0.4-0.7-1-1.2-0.9c0,0,0,0-0.1,0.1s0,0,0,0c-0.9-0.1-1.9,0.1-2.7,0.4l-0.9,0.3
		c-1.1,0.4-2.1,0.9-3,1.5c-0.5,0.3-1.3,0.4-1.6,0.7c-0.1,0.1-0.1,0.2-0.2,0.3s-0.2,0.1-0.3,0.2c-0.2,0.4-0.3,0.7-0.4,1.1
		c-0.6,2-0.7,4.4-1.3,6.4c-0.2,0.6-0.3,1.2-0.4,1.9c-0.1,0.2-0.1,0.5-0.1,0.7c0.3,0.6,0.7,1.2,1.2,1.8c0.7,0.8,1.3,1.6,1.8,2.5
		c0.1,0.4,0.3,0.9,0.5,1.3c0.3,0.1,0.6,0.2,0.9,0.3c0.2,0,0.3-0.2,0.5-0.2c0.4,0,0.9,0,1.3,0c1.3,0,2.7-0.1,4-0.3
		c0.8-0.1,1.5-0.2,2.4-0.2c0.3,0,0.5,0,0.8,0s0.6,0.3,0.9,0.2C169.6,133.5,169.2,132.1,169.1,131.6z"/>
	<path class="st1" d="M182.1,151.6c0.9,0.1,2.2,1.1,3,0.5s-0.7-5.4-0.9-7.3c-0.3-3.2-0.3-6.4,0.2-9.6c-0.6-0.2-0.4-0.4-0.4-0.7
		c-0.1-1.1-0.2-2.3-0.1-3.4c0.1-2.1,0.5-4.1,0.6-6.5c0-5.9-0.4-12.2-0.1-17.8c0-1.3-0.1-2.5,0.1-3.5c0.1-0.6,0.4-1.3,0.6-2
		c0.2-0.7,0.6-1.3,0.4-2.1c-0.4-1.1-1-2.2-1.8-3.2c-0.8-1.3-1.3-2.4-1.8-3.3c-1-1.5-2.1-2.9-3.3-4.2c-1.1-1.4-2.6-3.5-4.2-3.3
		c-0.2,0-0.2,0.2-0.3,0.2c-0.2,0,0,0.2-0.1,0.1c-3.3-0.3-6.7,0.2-9.8,1.4c-1,0.3-2.1,0.6-3.1,1c-3.8,1.3-7.4,3.1-10.8,5.3
		c-1.7,1-4.3,1.3-5.8,2.4c-0.3,0.2-0.5,0.7-0.8,1.1c-0.4,0.4-0.9,0.5-1.1,0.8c-0.7,1.2-1.3,2.6-1.5,4c-2.3,7.3-2.4,15.7-4.7,23
		c-0.7,2.2-1.2,4.4-1.6,6.7c-0.3,0.8-0.3,1.7-0.2,2.6c0.6,2,2.7,4.4,4.1,6.3c2.4,3.3,4.7,5.2,6.4,8.8c0.5,0.9,1.2,3.8,1.8,4.3
		c1,0.5,2,0.8,3.1,0.9c0.7,0,1.1-0.5,1.7-0.6c1.6-0.1,3.2-0.2,4.8-0.1c4.8,0.1,9.6-0.2,14.3-0.9c2.8-0.3,5.3-0.8,8.5-0.9
		C180.2,151.7,181.1,151.6,182.1,151.6z"/>
	<path class="st2" d="M175,89.6c0.3,0,0-0.7,0.6-0.5c1.4,1.4,2.5,3.2,4,4.5c0.1,2.3,3.2,3.6,3.6,5.4c0.1,0.5-0.3,1.4-0.5,1.3
		c-0.6-0.1-1.5-2.2-1.9-2.8C179.1,94.7,176.8,92,175,89.6z"/>
	<path class="st2" d="M173.8,90.1c0.1,0,0.2,0.1,0.3,0.3c0,1-1.3,1.5-2,2.1c-1.5,1.3-3.2,2.5-4.7,3.9c-0.7,0.7-1.1,1.7-2.2,1.8
		c-0.1-1.1,1-1.6,1.6-2.2C169,93.9,171.5,91.9,173.8,90.1z"/>
	<path class="st2" d="M167,90.4c-2.7,0.9-4.7,2.4-7.5,3.2c0.1-0.6,0-1.3-0.2-1.9C161.9,91.3,164.3,90.7,167,90.4z"/>
	<path class="st2" d="M175.3,91.8c-3.2,2.3-6.3,4.8-9.2,7.5c-0.2-1.3,1.1-1.6,1.8-2.1c2.2-1.7,4.6-3.8,6.9-5.4c0-0.1,0.2,0,0.2-0.2
		C175,91.6,175.1,91.8,175.3,91.8z"/>
	<path class="st2" d="M176,93.1c-2.9,2.1-5.6,4.5-8.2,7c-0.3,0.3-0.5,1-1.1,0.8c-0.6-0.8,0.2-1,0.5-1.3c2.5-2.3,5.7-4.6,8.2-7
		C175.8,92.4,175.7,93,176,93.1z"/>
	<path class="st2" d="M158.7,91.9c0.4,0.6,0.3,2.5-0.7,2.5C157.5,93.3,157.7,92,158.7,91.9z"/>
	<path class="st2" d="M176.6,94c0.4,0.8-0.4,1.1-0.8,1.3c-2.9,2.3-5.7,4.7-8.3,7.3c-0.8-1.1,0.8-2.4,1.5-3c2.3-1.9,5.5-3.9,7.3-5.8
		C176.5,93.8,176.6,93.9,176.6,94z"/>
	<path class="st2" d="M156.8,92.6c0.2,0.9,0.3,2.4-0.9,2.3c0.1-0.6,0.1-1.3,0-1.9C156.2,92.8,156.7,92.9,156.8,92.6z"/>
	<path class="st2" d="M166,94.2c0.2,0,0.3,0.1,0.2,0.1c-0.1,1.9-2,2.1-2.3,3.8c0,0.5,0.5,0.3,0.6,0.6c-0.1,1.1,1,1.9,0.3,2.7
		c0.3,0.4,0.6-0.2,0.8,0.2c2.1,4.4,2.8,10.6,6.1,13.4c0.1,0.7,0.2,1.4,0.2,2.2c-3.1,2-7.7,2.7-9.1,6.3c-0.8,0.2-1.1,0.8-1.8,1.1
		c-0.5-0.1-1-0.2-1.5-0.1c-2.7-5.4-7.3-8.3-10.9-12.5c-0.9-2.6-1.5-5.6-2.5-8c2.1-2.7,6-3.6,9.5-4.9C159.2,97.5,162.7,95.9,166,94.2
		z M162.6,102.6c0.7-0.1,1.1-0.5,0.7-1.6C161.8,99.7,161.4,101.6,162.6,102.6z M159.2,105.6c-0.2-0.7-0.9-1.1-1.5-0.9l0,0
		C155.4,105.3,160.2,108.3,159.2,105.6L159.2,105.6z M161.9,107.5c-0.4-0.2-0.3,0.2-0.6,0.2c0,0.6,0.3,1.1,0.8,1.5
		c1.8,0.3,1.3-2-0.1-2.5C161.5,106.5,161.6,107,161.9,107.5L161.9,107.5z M155.7,109c0.5-0.1,0.4-0.9,0-1.5c-0.1,0-0.3,0-0.3-0.2
		C154,107,154.7,109,155.7,109L155.7,109z M150.4,110c0.7-0.7,1.7-1.3,1.9-2.5C150.8,107.5,150.8,108.9,150.4,110L150.4,110z
		 M151.8,111.2c1.7-0.2,2.1-1.5,2.7-2.7C152.9,108.4,152.2,109.9,151.8,111.2L151.8,111.2z M152.9,112.9c1.4-0.7,2.6-1.8,3.3-3.1
		C154.5,109.9,153.1,111.2,152.9,112.9L152.9,112.9z M154.4,113.3c1.6-0.2,2.1-1.2,2.9-2c0-0.2-0.2-0.3-0.4-0.4
		C156.1,111.7,155.1,112.4,154.4,113.3L154.4,113.3z M161.9,116.5c0.5,0.5,1.3,0.6,1.5,0.1c-0.1-0.4-0.2-0.7-0.4-1
		C162.1,115.1,161.3,115.4,161.9,116.5L161.9,116.5z M160.8,117.9c-0.1-0.8-0.8-0.9-1.3-1.6C155.3,115.2,161,120.7,160.8,117.9
		L160.8,117.9z M159.7,120.9c0.9-0.2,0.9-1.2,1.3-1.9C160.2,119.3,159.4,119.5,159.7,120.9L159.7,120.9z M160.3,122.1
		c1-0.5,1.6-1.4,1.9-2.5C161.1,119.5,160.2,121,160.3,122.1L160.3,122.1z"/>
	<path class="st2" d="M177.3,95.2c0.3,0,0.2,0.4,0.5,0.4c-2.6,2.3-4.5,5.3-8.3,6.6c0.3-0.8,0.9-1.4,1.6-1.9
		C173.3,98.7,175.3,97,177.3,95.2z"/>
	<path class="st2" d="M154.8,93.4c0.2,0.8,0.4,2.4-0.7,2.3c0-0.6,0-1.3,0-1.9C154.3,93.7,154.7,93.7,154.8,93.4z"/>
	<path class="st2" d="M178.1,96.5c0.4,0.1,0.5,0.6,0.7,0.8c-1.6,1.6-3.3,3.4-4.9,5l-0.2,0.1c-1.6,1-3.9,1.3-5.1,2.8
		c1.9-0.1,2.8-1.6,4.3-1.6c0.6-0.4,1.3-1.3,2.3-0.9c0-0.3-0.3-0.4-0.6-0.4c1.4-1.5,3.2-2.6,4.5-4.1c0.5,1,1.6,1.8,1.8,2.8
		c-0.1,1.4-0.4,2.7-0.9,3.9c-0.3,0.5-0.9,0.5-1,0.9c-0.2,0-0.2-0.4-0.5-0.4c-3.2,1-5.2,3-8.1,4.3c0-0.5-0.4-0.6-0.4-1
		c3.1-1.3,5.8-3,8.8-4.5c-1.9-0.4-3.5,0.7-4.8,1.5c-1.4,0.8-2.8,1.7-4.1,2.5c-0.4-0.2-0.5-0.8-0.7-1.3c2.5-1.1,5-2.3,7.4-3.6
		c-2.7,0.4-5.3,1.6-7.5,3.2c-0.6-1-1.1-2.2-1.6-3.2c0.9-0.4,1.9-0.6,2.8-0.8c0.6,0.1-0.3,0.3,0.1,0.9c1.3,0,1.5-1.9,3.3-1.8
		c0-0.3-0.2-0.3-0.4-0.3C174.5,99.4,176.7,98.3,178.1,96.5z M176.8,102.3c1.2-0.7,2.1-1.8,2.6-3
		C178.4,100.2,177.5,101.2,176.8,102.3z"/>
	<path class="st2" d="M152.8,94.4c0.4,0.4,0.6,2.4-0.3,2.2C152.6,95.9,152.2,94.7,152.8,94.4z"/>
	<path class="st2" d="M150.3,95.8c0.2,0.7,0.2,1.5-0.1,2.1C149.8,97.2,149.8,96.1,150.3,95.8z"/>
	<path class="st2" d="M148.8,96.5c0.3,0.7,0.2,1.4-0.1,2C148.6,97.9,148.6,97.2,148.8,96.5z"/>
	<path class="st2" d="M144.4,99c0.3,0.3,0.4,1.3-0.2,1.1c0-0.2-0.1-0.5-0.3-0.5C143.9,99.3,144.4,99.4,144.4,99z"/>
	<path class="st2" d="M181.8,104.4c0.3,2.4-0.3,4.9,0,7.5c-0.9-0.6-2.1-0.8-3.1-0.4c0.6,1,2.3,0.8,3.1,0.7c0,3-0.1,6-0.2,8.9
		c-0.4,0.1-1.9-1.2-2.6-1.8c-0.4-2.8-1.3-5-2.9-6.4c1.1-2,2.7-3.7,3.4-6.1C180.5,106.7,181.2,105.4,181.8,104.4z M178.2,113.9
		c0.1,0.9,1.1,0.6,1,0.1C178.7,114,178.6,113.8,178.2,113.9z"/>
	<path class="st2" d="M175.8,108.7c0.3,0,0.2,0.1,0.2,0.3c-0.5,0.5-1,1.1-1.3,1.8c-1.4-0.3-2.2,0.9-3,1.5c-0.3-0.3-0.5-0.6-0.6-0.9
		C172.8,110.6,174.4,109.8,175.8,108.7z"/>
	<path class="st2" d="M145.4,106.4c1.1,2.4,1,4.3,2.1,6.3c1.1,1.9,3.2,3.3,4.7,4.8c3,2.8,5.7,6,8,9.4c0.2,1.9,0.9,3.8,2,5.5
		c-1.9,1-6.7-0.5-8.2,0.9c-0.8-0.4-1.7-0.1-2.2,0.6c-3.2-0.7-6.6-0.3-9.6,1.3c-1.3-2.2-2.5-4.4-3.5-6.7c0.9-1.5,1.6-3.2,2.2-4.8
		c0.8,1.3,1.5,2.7,2.3,4c0,0.5-1,0.1-0.8,0.8c0.4,1.3,1.4,0.7,1.9,0.8c0.4,0.5,0.5,1.1,0.6,1.7c0.6,0.2,0.4-0.4,0.4-0.8
		c1.3,0.9,1.9-0.3,1.7-1.1c-0.2-0.7-1-1.1-1.7-0.9c-0.3,0.1-0.5,0.2-0.7,0.5c-0.4-1.8-2.9-4.1-3.2-6c-0.2-1.1,0.9-2.9,1.2-3.9
		C143.7,114.7,144.7,110.2,145.4,106.4z M149.8,123.9c-0.4-0.7-1.3-1-2.1-0.7C145.4,124.3,151.5,127,149.8,123.9z M144.5,125.1
		c0.5,0.5,1.2,0.5,1.7,0.2C146.3,123.8,143.5,123.5,144.5,125.1L144.5,125.1z M151.9,129.8c0.6-1.5,0.8-3.2,0.6-4.9
		c-0.1-0.1-0.2-0.2-0.3-0.2C151.8,126.1,150.8,128.2,151.9,129.8L151.9,129.8z M153.4,130c0.7-1.5,1-3.2,0.8-4.9h-0.4
		C153.8,126.8,152.7,128,153.4,130L153.4,130z M154.9,129.6c0.7-0.7,0.4-2.3,0.6-3.5C154.5,126.5,154.5,128.4,154.9,129.6
		L154.9,129.6z M156.6,129.9c0.8-0.5,0.6-2,0.5-3.4h-0.4C156.4,127.6,156.3,128.8,156.6,129.9L156.6,129.9z"/>
	<path class="st2" d="M173.9,112.9c0.1,0.6-0.2,1.3-0.7,1.7c-0.3-0.2,0-0.7-0.4-1C173.2,113.4,173.4,113,173.9,112.9z"/>
	<path class="st2" d="M175,114c1.8,1,1.2,3.5,2.1,5.3c-0.9-0.2-1.7-0.7-2.5-1C174.9,117.1,174.7,115.4,175,114z"/>
	<path class="st2" d="M138.3,129.6c1,2.1,2.2,4.1,3.2,6.3C140.3,134.2,138.4,131.8,138.3,129.6z"/>
	<path class="st2" d="M137.9,132c1,1.4,1.6,3.2,2.6,4.5c0.1,0.5-0.4,0.5-0.7,0.6c0.3,0.6,0.5-0.1,1,0c2.9,4,5.9,7.9,7.7,13.3
		c-2.8-2.5-4.3-6.4-6.5-9.7c-0.7-1-1.8-2-2.3-3C138.6,135.9,138.7,134,137.9,132z"/>
	<path class="st2" d="M142,136.7c0.7,0.7,1.2,1.6,1.6,2.5C143,138.4,142.4,137.6,142,136.7z"/>
	<path class="st2" d="M178.9,149.7c-2,0.1-3.9,0.3-5.9,0.6C173.1,148.6,177.1,148.3,178.9,149.7z"/>
	<path class="st2" d="M172.2,148.9c0.1,1-1.3,1.6-2.5,1.7C169.3,149.4,170.7,148.8,172.2,148.9z"/>
	<path class="st2" d="M168.3,149.3c0.3,0.5-0.7,1.5-1.6,1.5C166.9,150.1,167.5,149.5,168.3,149.3z"/>
	<path class="st2" d="M165.3,149.8c0.2,1.5-3.8,0.5-5.2,0.5C161.9,150.3,163.6,150.1,165.3,149.8z"/>
	<path class="st2" d="M167.9,93.1c0,0.4-0.7,1.3-1.4,1C166.8,93.6,167.6,93.5,167.9,93.1z"/>
	<path class="st2" d="M143,100.7c1.3,3.8-0.1,6.1-0.9,8.6l-1.8,6.1C140.8,110.5,141.7,105.5,143,100.7z"/>
	<path class="st2" d="M178.6,106c0.2,0.7-1,1-1.6,1.3C177,106.8,178.2,106.5,178.6,106z"/>
	<path class="st2" d="M172.2,109.9c0.1-0.1-1,0.9-1.3,0.8C171,110.1,171.7,110.1,172.2,109.9z"/>
	<path class="st2" d="M174.3,110.9c0.4,0.6-0.7,0.7-0.8,1.1C173.3,111.6,174.2,111.4,174.3,110.9z"/>
	<path class="st2" d="M179.3,136c-0.3,1.8-3.9,2-6.1,2.6s-3.6,1.1-5.6,1.6c0.5,0.9,2,0.2,2.7,0c2.5-0.7,5.4-1.6,7.8-2.3
		c-0.8,1.5-3.1,1.3-4.9,1.8c-1.6,0.5-3.2,1.1-4.7,1.8c0.8,0.8,1.7,0,2.3-0.2c2.3-0.9,4.6-1.5,7-1.9c0.5-0.6,1.7-0.4,2.2-0.9
		c-0.3-0.3-0.9-0.1-1.1,0c0.9-1.4,1.9-2.7,3.2-3.8c0.2,1.9-0.5,3.8-1.7,5.1c-0.7,0.7-1.3,1.9-2,2.2c-0.9,0.2-1.8,0.4-2.6,0.5
		c-2.3,0.6-4.8,1.4-7.2,2c1.3,0.7,3.4-0.2,5.3-0.7s3.2-1.3,4.8-1.1c0.5-0.2,0.7-0.8,1.5-0.7c-0.3-0.6,0-0.8,0.4-1.3
		c0.2,0.6-0.2,1.4-0.3,2.1c-4.7,0.1-7.7,2.2-11.8,2.5c-0.2,0.2-0.2,0.5,0.1,0.9c-1.4,0-2.3,0.5-3.8,0.5c0.9-1.9,0.8-4.6,1.7-6.5
		c-0.2-0.4-0.1,0.3-0.5,0.1c0.2-4-2.5-8.7-3.1-13c1-0.5,1.3-1.6,1.8-2.5c1.7,0,2.2-1.1,3.2-1.7c2.8-0.2,3.6-2.1,5.3-3.3
		c2.4,0.5,4.3,1.8,7.1,1.8c2.2,1.5,1.6,3.9,1.6,6.6c0.1,1.8,0.1,3.4,0.2,4.8c-1.3,1.1-1.6,2.9-4.3,2.8c0.1-0.6,0.8-0.7,1.5-0.8
		c0.1-0.3-0.6-0.4-0.5-0.2c-0.2-0.5,0.4-1.3,1.3-1.3c-0.5-0.8,0.4-1,0.4-1.6c-1.9-0.1-3.7,0.1-5.5,0.5c-0.5-0.9,2.2-1.5,3.6-1.2
		c-0.5-0.6-1.8-0.4-2.4-0.4c-0.4-0.7,1.3-1.3,1.4-2.1c-1.2,0.5-2.3,1.3-3.2,2.2c-2.9,0.3-5.1,1.2-8,1.4c0.3,0.7,1.1,0.5,1.5,0.5
		c2,0.1,3.9-1.2,5.7-0.9c0.5,0.9-0.8,0.7-1.3,0.8c-1.6,0.3-3.8,0.8-5.4,1.3c1,0.9,2.5,0.4,3.6,0.2c3-0.6,6.4-1.4,9.4-2
		c-0.5,1.3-2.5,1-4.4,1.4c-2.9,0.5-5.9,1.5-8.7,2.1c0.7,1.1,2.1,0.4,2.8,0.3c2.8-0.6,5.9-1.4,8.4-2.1c0.5,0.3-0.4,0.8-0.6,1.1
		c-3,0.3-5.9,0.9-8.8,1.9c-0.8,0.2-1.7,0.6-2.4,1.1c1.8,0.3,3.5-0.5,5.2-0.9s3.6-0.9,5.2-1.3c-3.1,1.3-6.8,1.9-10,3.1
		c0.9,0.8,1.9,0.2,2.7,0c2.4-0.6,5-1.5,7.5-2C177.5,136.5,178.7,136.5,179.3,136z M176.9,123.4c-1.4,0.2-2.7,0.9-3.8,1.9
		c-0.7,0.6-1.8,1.1-1.7,2.2c0.8,0.4,1.1-0.4,1.5-0.7c0.9-0.8,1.9-1.5,3-2.1c0.5-0.3,1.3-0.5,1.4-1.1
		C177.2,123.4,177,123.4,176.9,123.4L176.9,123.4z M168.6,125.2c0-0.2,0.1-0.2-0.2-0.3c-0.7,0.9-2.7,0.6-2.9,2
		C166.9,126.6,167.5,125.6,168.6,125.2z M177.5,126.4c-1.2,0.3-2.3,0.9-3.2,1.9c-0.6,0.6-1.6,1.3-1.6,2.3c1.1,0,1.8-1.1,2.6-1.8
		c0.7-0.9,1.6-1.6,2.6-2C177.8,126.7,177.7,126.5,177.5,126.4L177.5,126.4z M167.9,129.5c1,0,1.2-1.7,0.8-2.3
		C168.5,128,167.4,128,167.9,129.5L167.9,129.5z M166.1,129.8c1-0.3,1.1-1.5,1.5-2.4C166.3,127.7,166,128.5,166.1,129.8L166.1,129.8
		z M167.6,143.1c2.2,0.6,4.1-0.3,5.9-0.7c0.9-0.2,1.9-0.5,2.7-0.8c0.8-0.2,1.7-0.6,2.4-1C174.8,140.8,171,141.6,167.6,143.1
		L167.6,143.1z"/>
	<path class="st2" d="M153.9,134.9c-1.7,1.8-3.6,3.3-4.8,5.6c0.8,0.1,1.1-0.8,1.5-1.3l1.4-1.5c0.9-1.1,2-2,3.3-2.6
		c0.4,0.4-0.2,0.7-0.4,0.9c-1.6,1.8-3.9,3.8-4.7,6.3c2.3-2.3,4.3-4.9,6.7-7.1c0.4,0.1,0.8,0.1,1.3,0c-2,2.5-4.6,4.5-6.3,7.4
		c0.9-0.2,1.4-1.1,2-1.7c1.8-2,3.9-3.9,5.6-5.9c0.7,0,0.9-0.4,1.8-0.2c-2.6,2.4-5,5.1-6.9,8.1c3.1-2.7,5.8-6.3,8.5-8.9
		c0,1,0.9,2.2,0.8,3.2c0,0.6-1.3,1.5-1.7,2c-1.8,1.8-3.4,3.9-4.7,6.1c2.5-2,4.4-5.3,6.6-7.2l0.4,1.7c-1.1,0.9-2.1,1.9-3,3
		c-1.1,1-1.9,2.2-2.4,3.6c1.4-0.2,1.9-1.9,2.8-2.9c0.8-1,1.8-2,2.8-2.8c0,1.1-0.9,1.7-1.5,2.4s-1.5,1.3-1.4,2.3
		c1.2-0.1,1.5-1.9,2.5-2.5c0.3,1.3-0.4,2.7-0.1,4.4c-5.1,0.6-10.9,0.6-14.5,2.5c-2.2-4.4-4.2-9.1-6.7-13.2c0.9-2.5,7-0.8,10.2-1
		C153.7,135.5,153.4,134.9,153.9,134.9z M163,136c0.1,0,0.1-0.2-0.2-0.2c-2.4,2-4.6,4.3-6.4,6.9c-0.8,0.7-1.3,1.7-1.5,2.8
		C157.8,142.4,160.5,139.3,163,136z M149.4,138.5c-0.6,1.2-3,2.1-2.2,3.8c1-1.2,1.8-2.4,2.5-3.8H149.4z"/>
	<path class="st2" d="M179.5,143.4c0.6,0.6-0.9,1-0.8,1.8c0.5,0.9,0.7-0.8,1,0c-0.2,0.5-0.3,1-0.4,1.5c-1.4,0-2.5-0.3-3.9-0.5
		c0.2-0.4,0.9-0.4,1-0.8c-2,0.5-4,0.8-6.1,0.8C173.3,145.2,176.8,144.7,179.5,143.4z"/>
	<path class="st1" d="M171.8,134c-0.1-1.3-0.1-2.6,0-3.9c-0.2-0.1-0.1-0.2-0.2-0.3c0-0.5,0-0.9,0-1.4c0-0.8,0.2-1.7,0.2-2.6
		c0-2.4-0.2-4.9,0-7.2c0-0.5,0-1,0-1.4s0.2-0.5,0.2-0.8c0.1-0.3,0.2-0.5,0.2-0.9c-0.2-0.5-0.4-0.9-0.7-1.3c-0.3-0.5-0.5-1-0.7-1.3
		c-0.4-0.6-0.9-1.2-1.4-1.7c-0.4-0.6-1.1-1.4-1.7-1.3c-0.1,0-0.1,0.1-0.1,0.1l0,0c-1.3-0.1-2.7,0.1-4,0.6c-0.4,0.1-0.9,0.3-1.3,0.4
		c-1.5,0.5-3,1.3-4.3,2.2c-0.7,0.4-1.7,0.5-2.3,1c-0.1,0.1-0.2,0.3-0.3,0.4s-0.4,0.2-0.5,0.3c-0.3,0.5-0.5,1-0.6,1.6
		c-0.9,2.9-1,6.3-1.9,9.3c-0.3,0.9-0.5,1.8-0.6,2.7c-0.1,0.3-0.1,0.7-0.1,1.1c0.4,0.9,1,1.8,1.7,2.5c1,1.1,1.8,2.3,2.6,3.5
		c0.2,0.6,0.4,1.2,0.7,1.7c0.4,0.2,0.8,0.3,1.3,0.4c0.3,0,0.4-0.2,0.7-0.3c0.6,0,1.3,0,1.9,0c1.9,0,3.9-0.1,5.8-0.4
		c1.1-0.1,2.1-0.3,3.4-0.4c0.4-0.1,0.8-0.1,1.3-0.1c0.4,0.1,0.9,0.5,1.3,0.2C172.6,136.6,171.9,134.8,171.8,134z"/>
	<path class="st2" d="M169.1,131.6c-0.1-0.9-0.1-1.8,0-2.7c-0.2,0-0.1-0.1-0.1-0.2c0-0.3,0-0.6,0-1c0-0.6,0.2-1.1,0.2-1.8
		c0-1.6-0.1-3.4,0-5c0-0.4,0-0.7,0-1s0.1-0.4,0.2-0.6c0.1-0.2,0.2-0.4,0.1-0.6c-0.1-0.3-0.3-0.6-0.5-0.9s-0.4-0.7-0.5-0.9
		c-0.3-0.4-0.6-0.8-0.9-1.2c-0.3-0.4-0.7-1-1.2-0.9c0,0,0,0-0.1,0.1s0,0,0,0c-0.9-0.1-1.9,0.1-2.7,0.4l-0.9,0.3
		c-1.1,0.4-2.1,0.9-3,1.5c-0.5,0.3-1.3,0.4-1.6,0.7c-0.1,0.1-0.1,0.2-0.2,0.3s-0.2,0.1-0.3,0.2c-0.2,0.4-0.3,0.7-0.4,1.1
		c-0.6,2-0.7,4.4-1.3,6.4c-0.2,0.6-0.3,1.2-0.4,1.9c-0.1,0.2-0.1,0.5-0.1,0.7c0.3,0.6,0.7,1.2,1.2,1.8c0.7,0.8,1.3,1.6,1.8,2.5
		c0.1,0.4,0.3,0.9,0.5,1.3c0.3,0.1,0.6,0.2,0.9,0.3c0.2,0,0.3-0.2,0.5-0.2c0.4,0,0.9,0,1.3,0c1.3,0,2.7-0.1,4-0.3
		c0.8-0.1,1.5-0.2,2.4-0.2c0.3,0,0.5,0,0.8,0s0.6,0.3,0.9,0.2C169.6,133.5,169.2,132.1,169.1,131.6z"/>
	<path class="st1" d="M271.9,62.5c-0.3,1.1-1.7,2.6-1,3.7c0.8,1.3,6.6-0.2,9-0.2c3.9,0,7.9,0.4,11.7,1.3c0.3-0.7,0.6-0.4,0.9-0.4
		c1.4,0,2.8,0,4.2,0.2c2.5,0.4,5,1.1,7.9,1.4c7.2,0.7,15.1,1,21.9,1.9c1.5,0.2,3.1,0.2,4.3,0.5c0.8,0.2,1.5,0.7,2.3,1
		s1.5,0.9,2.5,0.8c1.5-0.4,2.9-1,4.1-1.8c1.6-0.8,3.1-1.3,4.3-1.8c1.9-1.1,3.8-2.3,5.6-3.6c1.8-1.3,4.5-2.8,4.5-4.8
		c0-0.2-0.2-0.2-0.2-0.4c-0.1,0-0.2,0-0.1-0.1c1.1-5,0.1-8.9-0.6-12.2c-0.3-1.3-0.5-2.7-0.8-4c-1.2-4.8-3-9.4-5.3-13.8
		c-1.1-2.2-1-5.5-2.2-7.4c-0.2-0.3-0.8-0.6-1.3-1.1s-0.5-1.1-0.8-1.5c-1.1-1.1-3.1-1.7-4.8-2.3c-8.7-3.7-19.1-4.8-27.8-8.5
		c-2.6-1.1-5.3-2-8-2.7c-1-0.4-2.1-0.6-3.2-0.5c-2.5,0.5-5.7,2.9-8.2,4.3c-4.3,2.5-7,5.1-11.5,6.9c-1.2,0.5-4.7,1-5.5,1.7
		c-0.7,1.2-1.2,2.4-1.5,3.8c-0.1,0.8,0.5,1.4,0.6,2.1c0,2-0.2,4-0.5,5.9c-0.7,5.9-0.9,11.8-0.6,17.7c0.1,3.5,0.3,6.6,0.1,10.5
		C272,60,272,61.2,271.9,62.5z"/>
	<path class="st2" d="M349,60.9c0,0.4,0.8,0.1,0.5,0.8c-1.9,1.6-4.2,2.8-6,4.4c-2.8-0.1-4.8,3.5-7,3.9c-0.7,0.1-1.7-0.5-1.6-0.8
		c0.2-0.7,2.9-1.6,3.7-2C342.3,65.4,345.8,62.8,349,60.9z"/>
	<path class="st2" d="M348.5,59.4c-0.1,0.2-0.2,0.3-0.4,0.4c-1.3,0-1.7-1.7-2.3-2.7c-1.3-2-2.6-4.3-4.2-6.3c-0.8-1-2-1.6-2-2.9
		c1.4,0,1.9,1.4,2.6,2.3C344.4,52.9,346.5,56.3,348.5,59.4z"/>
	<path class="st2" d="M349,51c-0.8-3.5-2.4-6.1-3.1-9.6c0.8,0.1,1.6,0.1,2.4-0.1C348.5,44.5,348.9,47.6,349,51z"/>
	<path class="st2" d="M346.2,60.9c-2.3-4.3-5.6-8.4-8.2-12.2c1.5-0.1,1.8,1.5,2.4,2.4c1.8,2.9,4.1,6.1,5.9,9.1c0.2,0,0,0.3,0.3,0.3
		C346.5,60.6,346.3,60.7,346.2,60.9z"/>
	<path class="st2" d="M344.6,61.7c-2.4-3.6-4.7-7.5-7.6-10.9c-0.3-0.4-1.1-0.7-0.8-1.5c1.1-0.7,1.3,0.3,1.6,0.8
		c2.5,3.3,5,7.5,7.6,10.9C345.4,61.5,344.8,61.4,344.6,61.7z"/>
	<path class="st2" d="M348.1,40.6c-0.8,0.4-3.1,0.1-2.9-1.2C346.5,39,348.1,39.3,348.1,40.6z"/>
	<path class="st2" d="M343.4,62.4c-1,0.4-1.3-0.7-1.5-1.1c-2.4-3.9-5.1-7.6-8-11.1c1.4-0.8,2.8,1.3,3.5,2.3c2.1,3,4.2,7.2,6.3,9.6
		C343.6,62.2,343.5,62.3,343.4,62.4z"/>
	<path class="st2" d="M347.4,38.2c-1.1,0.2-3,0.1-2.7-1.3c0.8,0.1,1.6,0.2,2.3,0.2C347.2,37.4,347.1,38,347.4,38.2z"/>
	<path class="st2" d="M344.4,49.3c0,0.3-0.2,0.3-0.2,0.2c-2.3-0.3-2.3-2.7-4.3-3.3c-0.6,0-0.4,0.6-0.8,0.7c-1.3-0.3-2.4,1-3.3,0.1
		c-0.5,0.3,0.1,0.7-0.3,0.9c-5.6,2.1-13.4,2.2-17.2,6c-0.9,0.1-1.8,0.1-2.7,0c-2.1-4.1-2.4-9.8-6.6-11.9c-0.1-1-0.8-1.5-1.1-2.3
		c0.2-0.6,0.3-1.2,0.3-1.8c6.9-2.7,11.1-8,16.7-11.9c3.3-0.8,7.1-1.1,10.2-2.1c3,2.9,3.8,7.8,5,12.3C341.3,40.6,342.8,45,344.4,49.3
		z M334.5,44.1c0.1,0.8,0.4,1.4,1.9,1C338,43.5,335.9,42.7,334.5,44.1z M331.2,39.6c0.8-0.2,1.4-1,1.3-1.8l0,0
		C332,34.9,327.8,40.5,331.2,39.6L331.2,39.6z M328.6,42.6c0.2-0.5-0.2-0.4-0.2-0.7c-0.7,0-1.4,0.3-1.9,0.9
		c-0.6,2.2,2.4,1.7,3.1,0.1C329.8,42.3,329.1,42.4,328.6,42.6L328.6,42.6z M327.4,34.9c0.1,0.6,1.1,0.6,1.9,0.2
		c0.1-0.1,0.1-0.3,0.2-0.3C330.1,33.1,327.5,33.6,327.4,34.9L327.4,34.9z M326.8,28.3c0.8,1,1.4,2.2,2.8,2.6
		C329.8,29,328.1,28.9,326.8,28.3L326.8,28.3z M325.1,29.8c0.1,2.1,1.7,2.7,2.9,3.7C328.4,31.6,326.6,30.5,325.1,29.8z M322.9,30.9
		c0.6,1.8,1.8,3.4,3.4,4.5C326.4,33.3,325,31.4,322.9,30.9L322.9,30.9z M322.2,32.8c0,1.9,1.3,2.7,2.1,3.8c0.2,0,0.4-0.2,0.5-0.4
		C324,35.1,323.2,33.8,322.2,32.8L322.2,32.8z M317.5,41.6c-0.7,0.5-0.9,1.5-0.3,1.8c0.5,0,0.9-0.2,1.3-0.4
		C319,42.1,318.9,41,317.5,41.6L317.5,41.6z M315.8,40c1,0,1.3-0.9,2.1-1.4C319.8,33.6,312.4,40,315.8,40L315.8,40z M312.4,38.4
		c0.2,1.1,1.4,1.3,2.2,1.7C314.2,39.2,314,38.1,312.4,38.4L312.4,38.4z M310.8,39.1c0.5,1.2,1.6,2.2,2.8,2.6
		C313.8,40.4,312.1,39.1,310.8,39.1L310.8,39.1z"/>
	<path class="st2" d="M341.9,63c0,0.4-0.5,0.2-0.6,0.5c-2.5-3.5-6-6.1-7.1-10.9c0.9,0.5,1.6,1.3,2.1,2.2
		C338,57.4,339.8,60.7,341.9,63z"/>
	<path class="st2" d="M346.6,35.7c-1,0.2-3,0.2-2.8-1.2c0.7,0.2,1.6,0.2,2.3,0.2C346.4,35,346.3,35.5,346.6,35.7z"/>
	<path class="st2" d="M340.1,63.9c-0.2,0.4-0.8,0.5-1.1,0.8c-1.7-2.1-3.8-4.4-5.5-6.6c0-0.1-0.1-0.2-0.1-0.3
		c-1.1-2.1-1.1-4.9-2.9-6.6c-0.1,2.3,1.6,3.6,1.5,5.5c0.4,0.8,1.4,1.6,0.9,2.9c0.4,0,0.6-0.3,0.6-0.7c1.7,1.9,2.8,4.2,4.6,6
		c-1.3,0.6-2.5,1.7-3.7,1.9c-1.7-0.3-3.3-0.8-4.7-1.6c-0.6-0.4-0.5-1.2-1-1.3c0.1-0.3,0.6-0.2,0.6-0.5c-0.8-4.1-3.1-6.8-4.4-10.5
		c0.6,0,0.7-0.4,1.3-0.4c1.3,4,3.1,7.5,4.5,11.3c0.7-2.3-0.5-4.3-1.3-6.1s-1.8-3.7-2.6-5.3c0.3-0.5,1.1-0.5,1.7-0.7
		c1,3.3,2.2,6.4,3.6,9.6c-0.2-3.4-1.3-6.7-3.1-9.6c1.3-0.7,2.8-1,4.1-1.6c0.4,1.2,0.6,2.4,0.6,3.6c-0.3,0.8-0.3-0.4-1.1,0
		c-0.1,1.6,2.2,2,1.9,4.3c0.3,0,0.4-0.3,0.4-0.5C337,59.2,338.1,61.9,340.1,63.9z M333.1,61.6c0.7,1.5,1.9,2.8,3.4,3.6
		C335.6,63.8,334.4,62.6,333.1,61.6z"/>
	<path class="st2" d="M345.8,33c-0.5,0.4-3,0.5-2.7-0.6C343.8,32.6,345.4,32.2,345.8,33z"/>
	<path class="st2" d="M344.3,29.7c-0.9,0.2-1.8,0.1-2.6-0.3C342.5,29,344,29.1,344.3,29.7z"/>
	<path class="st2" d="M343.5,27.8c-0.8,0.3-1.8,0.1-2.5-0.4C341.9,27.4,342.8,27.5,343.5,27.8z"/>
	<path class="st2" d="M340.9,22.2c-0.4,0.3-1.7,0.4-1.3-0.4c0.3,0,0.6,0,0.7-0.3C340.8,21.5,340.5,22.1,340.9,22.2z"/>
	<path class="st2" d="M330,67.5c-3,0.1-6-0.9-9.3-0.9c0.8-1.1,1.1-2.4,0.9-3.8c-1.3,0.6-1.2,2.7-1.2,3.7c-3.8-0.4-7.3-0.8-11-1.3
		c-0.1-0.5,1.7-2.2,2.5-3c3.5-0.2,6.3-0.9,8.3-2.9c2.4,1.6,4.2,3.8,7.1,4.9C327.4,65.6,328.8,66.7,330,67.5z M318.8,62
		c-1.1,0-0.9,1.3-0.2,1.3C318.5,62.6,318.9,62.5,318.8,62L318.8,62z"/>
	<path class="st2" d="M325.5,59.7c-0.1,0.4-0.2,0.2-0.4,0.2c-0.5-0.7-1.2-1.3-2-1.7c0.5-1.7-0.8-2.8-1.5-3.9
		c0.4-0.3,0.8-0.5,1.3-0.6C323.4,55.8,324.3,57.8,325.5,59.7z"/>
	<path class="st2" d="M331.8,22.5c-3,1.1-5.4,0.7-7.9,1.8s-4.5,3.5-6.5,5.2c-3.9,3.4-8.1,6.3-12.5,8.8c-2.4,0.1-4.8,0.7-7,1.8
		c-1.1-2.5,1.4-8.2-0.2-10.2c0.6-0.9,0.4-2.1-0.5-2.7c1.3-3.9,1.1-8.1-0.5-11.9c2.8-1.3,5.7-2.5,8.6-3.5c1.8,1.3,3.7,2.4,5.7,3.2
		c-1.6,0.9-3.5,1.5-5.2,2.4c-0.6,0,0-1.3-0.9-1c-1.6,0.3-1.1,1.6-1.3,2.2c-0.7,0.4-1.4,0.5-2.1,0.5c-0.3,0.7,0.5,0.6,1,0.6
		c-1.3,1.5,0.2,2.4,1.2,2.2c0.9-0.2,1.5-1.1,1.4-2c-0.1-0.4-0.2-0.7-0.5-0.9c2.3-0.3,5.3-3,7.7-3.2c1.3-0.1,3.5,1.4,4.7,1.9
		C321.8,19.4,327.2,21.2,331.8,22.5z M309.8,25.9c0.9-0.5,1.4-1.5,1.1-2.5C309.8,20.4,305.8,27.6,309.8,25.9L309.8,25.9z
		 M308.9,19.1c-0.6,0.5-0.8,1.4-0.4,2.1C310.2,21.5,311,18.2,308.9,19.1L308.9,19.1z M302.2,27.8c1.8,0.9,3.9,1.4,5.9,1.3
		c0.1-0.1,0.2-0.2,0.2-0.3C306.8,28.1,304.4,26.6,302.2,27.8L302.2,27.8z M301.9,29.6c1.8,1.1,3.8,1.6,5.9,1.6
		c0-0.2,0.1-0.3,0.1-0.5C305.8,30.5,304.4,29,301.9,29.6L301.9,29.6z M302.2,31.5c0.8,0.9,2.8,0.8,4.2,1.1
		C306,31.3,303.8,31.2,302.2,31.5L302.2,31.5z M301.6,33.6c0.6,1.1,2.4,1,4.1,1c0-0.2,0.1-0.3,0.1-0.5
		C304.6,33.8,303.2,33.1,301.6,33.6z"/>
	<path class="st2" d="M320.5,56.8c-0.8,0-1.5-0.4-2-1c0.3-0.3,0.9,0,1.3-0.4C319.9,55.9,320.5,56.2,320.5,56.8z"/>
	<path class="st2" d="M319,58c-1.5,2.1-4.5,1-6.8,1.9c0.4-1.1,1-2,1.5-3C315.2,57.5,317.3,57.6,319,58z"/>
	<path class="st2" d="M304,11.1c-2.7,1-5.3,2.2-8,3.3C298.2,13,301.4,10.9,304,11.1z"/>
	<path class="st2" d="M301.2,10.4c-1.8,1-4.1,1.6-5.9,2.6c-0.6,0-0.5-0.5-0.6-0.9c-0.8,0.3,0.1,0.6,0,1.2
		c-5.3,3.1-10.3,6.3-17.2,7.9c3.4-3.2,8.3-4.5,12.6-6.9c1.3-0.7,2.7-2,3.9-2.5C296.3,10.8,298.8,11,301.2,10.4z"/>
	<path class="st2" d="M295,14.8c-1,0.8-2.1,1.3-3.3,1.7C292.8,15.7,293.8,15.2,295,14.8z"/>
	<path class="st2" d="M274.8,58.7c0.4-2.8-0.1-4.8-0.1-7.3C276.8,51.6,276.5,56.7,274.8,58.7z"/>
	<path class="st2" d="M276.3,50.5c-1.3,0-1.8-1.7-1.8-3.2C276.1,47,276.6,48.7,276.3,50.5z"/>
	<path class="st2" d="M276.3,45.7c-0.6,0.3-1.7-1-1.7-2.1C275.6,43.8,276.2,44.7,276.3,45.7z"/>
	<path class="st2" d="M276,41.9c-1.9,0.1-0.2-4.7-0.1-6.4C275.9,37.6,275.9,39.7,276,41.9z"/>
	<path class="st2" d="M345.5,51.8c-0.4-0.1-1.5-1-1.1-1.9C345,50.3,345.1,51.3,345.5,51.8z"/>
	<path class="st2" d="M339.1,20.2c-4.8,1.3-7.5-0.9-10.5-2.1l-7.3-3C327.3,16.4,333.3,18.1,339.1,20.2z"/>
	<path class="st2" d="M328.4,63.3c-0.8,0.2-1.1-1.3-1.3-2.1C327.6,61.3,327.8,62.8,328.4,63.3z"/>
	<path class="st2" d="M324.4,55c0.1,0.2-1-1.3-0.8-1.6C324.2,53.6,324.2,54.4,324.4,55z"/>
	<path class="st2" d="M322.8,57.6c-0.7,0.4-0.7-0.9-1.3-1.1C322.1,56.3,322.3,57.4,322.8,57.6z"/>
	<path class="st2" d="M291.5,60.8c-2.2-0.6-2-5-2.5-7.8c-0.5-2.6-1-4.6-1.4-7.1c-1.3,0.5-0.4,2.4-0.3,3.3c0.5,3.1,1.3,6.8,2,9.8
		c-1.7-1.2-1.3-4-1.7-6.2c-0.4-2.1-1-4.1-1.7-6c-1.1,0.9-0.2,2,0,2.8c0.8,2.9,1.3,5.9,1.5,8.9c0.6,0.6,0.3,2.2,0.9,2.8
		c0.5-0.3,0.2-1.1,0.1-1.3c1.5,0.8,2.9,2.9,4.2,4.3c-2.3,0-4.6-1-6.1-2.7c-0.8-0.9-2.2-1.8-2.5-2.7c-0.2-1.1-0.3-2.2-0.3-3.3
		c-0.5-3-1.3-6-1.6-9.1c-1,1.5-0.2,4.2,0.2,6.5c0.4,2.3,1.1,4.1,0.8,6c0.2,0.7,0.9,1,0.7,1.9c0.7-0.3,1,0,1.5,0.7
		c-0.7,0.1-1.8-0.5-2.5-0.6c0.4-5.7-1.8-9.7-1.7-14.8c-0.3-0.3-0.6-0.3-1.1,0c0.1-1.7-0.3-2.9-0.2-4.7c2.3,1.3,5.6,1.6,7.8,2.9
		c0.5-0.2-0.3-0.2,0-0.6c4.9,0.7,11-2.1,16.4-2.3c0.5,1.3,1.8,1.8,2.8,2.5c-0.2,2.1,1.1,2.8,1.8,4.1c-0.1,3.5,2.2,4.7,3.4,7
		c-0.9,2.9-2.7,5-3,8.5c-2,2.5-5,1.5-8.3,1.3c-2.2-0.1-4.2-0.2-5.9-0.3c-1.2-1.7-3.5-2.3-2.9-5.6c0.7,0.2,0.8,1,0.7,1.9
		c0.4,0.2,0.6-0.7,0.3-0.6c0.8,0,1.4,0.6,1.4,1.4c0,0.1,0,0.2,0,0.3c1.1-0.5,1.1,0.6,1.9,0.7c0.3-2.3,0.3-4.6,0-6.9
		c1.3-0.6,1.6,2.9,1.1,4.5c0.7-0.6,0.7-2.2,0.7-2.9c0.9-0.4,1.4,1.7,2.5,2c-0.5-1.5-1.3-3-2.4-4.2c0-3.6-0.8-6.4-0.8-10
		c-0.9,0.3-0.7,1.3-0.8,1.7c-0.3,2.4,1,4.9,0.4,7.1c-1.1,0.5-0.7-1.1-0.8-1.6c-0.2-2-0.6-4.8-1-6.7c-1.2,1.1-0.8,3.1-0.6,4.4
		c0.3,3.8,0.9,8,1.4,11.8c-1.5-0.8-1-3.3-1.2-5.5c-0.3-3.7-1.1-7.4-1.6-10.9c-1.5,0.7-0.7,2.5-0.6,3.5c0.4,3.5,1.1,7.4,1.7,10.6
		c-0.4,0.6-0.9-0.6-1.3-0.8c0-3.7-0.4-7.4-1.3-10.9c-0.2-1.1-0.5-2.1-1-3.1c-0.6,2.2,0.2,4.4,0.5,6.5s0.7,4.5,1,6.6
		c-1.3-3.9-1.6-8.6-2.7-12.6c-1.1,1-0.4,2.4-0.3,3.3c0.5,3,1.3,6.3,1.6,9.4C291,58.5,290.9,59.9,291.5,60.8z M307.2,59.2
		c-0.1-1.8-0.8-3.5-1.9-4.8c-0.6-0.9-1.1-2.3-2.5-2.4c-0.6,0.9,0.4,1.5,0.7,1.9c0.9,1.2,1.6,2.5,2.3,3.9c0.3,0.7,0.5,1.6,1.3,1.9
		C307.2,59.7,307.2,59.5,307.2,59.2z M306,48.9c0.2,0,0.3,0.2,0.3-0.2c-1-1-0.5-3.4-2.1-3.8C304.4,46.6,305.5,47.4,306,48.9
		L306,48.9z M303.3,59.7c-0.2-1.5-0.8-3-1.9-4.1c-0.7-0.9-1.3-2.1-2.6-2.3c0,1.4,1.1,2.3,1.9,3.4c1,1,1.7,2.2,2.2,3.5
		C303,59.9,303.3,59.9,303.3,59.7L303.3,59.7z M300.8,47.5c-0.2,1.3,2,1.6,2.8,1.3C302.5,48.4,302.6,47,300.8,47.5L300.8,47.5z
		 M300.5,45.2c0.3,1.3,1.7,1.5,2.8,2.1C303.2,45.8,302.1,45.2,300.5,45.2L300.5,45.2z M284,45.5c-1,2.7-0.2,5,0.2,7.3
		c0.2,1.1,0.4,2.3,0.6,3.4c0.2,1.1,0.5,2.1,1,3.1C286.1,54.6,285.5,49.9,284,45.5L284,45.5z"/>
	<path class="st2" d="M295.8,29.7c-2-2.3-3.7-4.8-6.4-6.5c-0.2,1,0.9,1.4,1.4,2l1.7,1.9c1.3,1.2,2.3,2.7,2.8,4.4
		c-0.5,0.4-0.8-0.3-1-0.6c-2-2.2-4.2-5.2-7.2-6.5c2.6,3.1,5.5,5.8,7.9,9.1c-0.2,0.5-0.2,1-0.1,1.5c-2.8-2.8-5-6.2-8.4-8.5
		c0.1,1.1,1.1,1.8,1.9,2.6c2.2,2.4,4.4,5.2,6.6,7.6c-0.1,0.9,0.4,1.1,0.1,2.2c-2.6-3.5-5.7-6.7-9.1-9.4c3,4.1,7,7.9,10,11.5
		c-1.3-0.1-2.8,0.8-4.1,0.6c-0.7-0.1-1.7-1.7-2.3-2.3c-2.1-2.5-4.4-4.7-7-6.5c2.2,3.4,6,6,8.1,9l-2.1,0.3c-1-1.5-2.1-2.8-3.3-4
		c-1.1-1.4-2.5-2.6-4.1-3.3c0.1,1.7,2.1,2.5,3.2,3.8c1.2,1.1,2.2,2.4,3.1,3.8c-1.3-0.1-2-1.3-2.8-2.1s-1.4-1.9-2.6-1.9
		c0,1.5,2.1,2.1,2.8,3.4c-1.7,0.2-3.3-0.8-5.4-0.6c-0.1-6.4,0.6-13.4-1.4-18.1c5.7-2.2,11.7-4.1,17-6.7c3,1.4,0.1,8.7,0,12.5
		C295.1,29.3,295.8,29.1,295.8,29.7z M293.3,40.7c0,0.2,0.2,0.1,0.2-0.2c-2.1-3.2-4.7-6.1-7.7-8.6c-0.8-1-2-1.8-3.2-2.1
		C286,33.6,289.5,37.3,293.3,40.7z M291.8,23.7c-1.4-0.9-2.3-3.9-4.5-3.1c1.3,1.3,2.8,2.5,4.4,3.6C291.8,24,291.8,23.8,291.8,23.7z"
		/>
	<path class="st2" d="M282.3,60.1c-0.9,0.7-1.2-1.2-2.1-1.1c-1.2,0.5,0.9,0.9-0.1,1.2c-0.6-0.3-1.2-0.5-1.8-0.6
		c0.2-1.7,0.7-3.1,1-4.7c0.5,0.3,0.4,1.1,0.9,1.3c-0.1-2.5-0.7-4.6-0.3-7.5C280.9,52.3,281.1,56.7,282.3,60.1z"/>
	<path class="st1" d="M294.8,51.7c1.6,0,3.2,0.2,4.7,0.5c0.1-0.3,0.2-0.2,0.4-0.2c0.6,0,1.1,0,1.7,0.1c1,0.2,2,0.5,3.2,0.6
		c2.9,0.3,6,0.4,8.8,0.8c0.6,0.1,1.3,0.1,1.7,0.2c0.3,0.1,0.6,0.2,1,0.4c0.4,0.1,0.6,0.4,1,0.3c0.6-0.2,1.1-0.4,1.7-0.7
		c0.7-0.3,1.3-0.5,1.7-0.7c0.8-0.4,1.5-0.9,2.2-1.5c0.7-0.5,1.8-1.1,1.8-1.9c0-0.1-0.1-0.1-0.1-0.2s-0.1,0-0.1,0
		c0.3-1.6,0.2-3.3-0.2-4.9c-0.1-0.5-0.2-1.1-0.3-1.6c-0.5-1.9-1.2-3.8-2.1-5.6c-0.4-0.9-0.4-2.2-0.9-3c-0.1-0.1-0.3-0.3-0.5-0.5
		s-0.2-0.5-0.3-0.6c-0.6-0.4-1.2-0.7-1.9-0.9c-3.5-1.5-7.7-1.9-11.2-3.4c-1.1-0.4-2.1-0.8-3.2-1.1c-0.4-0.2-0.8-0.2-1.3-0.2
		c-1.2,0.4-2.3,1-3.3,1.7c-1.5,1.1-3,2-4.6,2.8c-0.8,0.2-1.5,0.4-2.2,0.7c-0.3,0.5-0.5,1-0.6,1.5c0,0.3,0.2,0.6,0.2,0.9
		c0,0.8-0.1,1.6-0.2,2.4c-0.3,2.4-0.4,4.7-0.2,7.1c0,1.4,0.1,2.6,0,4.2c0,0.5,0,1,0,1.5c-0.1,0.4-0.7,1-0.4,1.5
		C291.4,52.3,293.8,51.7,294.8,51.7z"/>
	<path class="st2" d="M298.1,48.7c1.1,0,2.2,0.1,3.3,0.4c0.1-0.2,0.2-0.1,0.2-0.1c0.4,0,0.8,0,1.3,0.1c0.7,0.1,1.4,0.3,2.2,0.4
		c2,0.2,4.2,0.3,6.1,0.5c0.4,0.1,0.9,0.1,1.3,0.2s0.4,0.2,0.7,0.3c0.2,0.1,0.4,0.3,0.7,0.2c0.4-0.1,0.8-0.3,1.2-0.5
		c0.4-0.2,0.9-0.4,1.3-0.5c0.5-0.3,1.1-0.6,1.6-1c0.5-0.3,1.3-0.8,1.3-1.3c0,0-0.1,0-0.1-0.1s-0.1,0,0,0c0.2-1.1,0.1-2.3-0.2-3.4
		c-0.1-0.4-0.2-0.8-0.2-1.1c-0.3-1.3-0.8-2.6-1.5-3.9c-0.3-0.6-0.3-1.5-0.6-2.1c0-0.1-0.2-0.2-0.3-0.3c-0.1-0.1-0.1-0.3-0.2-0.4
		c-0.4-0.3-0.9-0.5-1.3-0.7c-2.4-1-5.3-1.3-7.8-2.4c-0.7-0.3-1.5-0.6-2.2-0.8c-0.3-0.1-0.6-0.2-0.9-0.2c-0.8,0.3-1.6,0.7-2.3,1.3
		c-1,0.7-2.1,1.4-3.2,1.9c-0.5,0.1-1,0.3-1.5,0.5c-0.2,0.3-0.3,0.7-0.4,1.1c0,0.2,0.2,0.4,0.2,0.6c0,0.6,0,1.1-0.1,1.7
		c-0.2,1.6-0.2,3.3-0.2,4.9c0,1,0.1,1.8,0,2.9c0,0.3,0,0.7,0,1c-0.1,0.3-0.5,0.7-0.3,1C295.9,49.2,297.4,48.7,298.1,48.7z"/>
</g>
</svg>
