<?xml version="1.0" encoding="utf-8"?>
<!-- Generator: Adobe Illustrator 26.0.1, SVG Export Plug-In . SVG Version: 6.00 Build 0)  -->
<svg version="1.1" id="Слой_1" xmlns="http://www.w3.org/2000/svg" xmlns:xlink="http://www.w3.org/1999/xlink" x="0px" y="0px"
	 viewBox="0 0 128 128" style="enable-background:new 0 0 128 128;" xml:space="preserve">
<style type="text/css">
	.st0{fill-rule:evenodd;clip-rule:evenodd;fill:#18181B;}
	.st1{fill-rule:evenodd;clip-rule:evenodd;fill:#FFFFFF;}
</style>
<g>
	<rect x="-2.9" y="-4.9" class="st0" width="136.3" height="134.1"/>
	<path class="st1" d="M115,105.1c0.2,0.6,0.2,1.2-0.1,1.7C114.6,106.3,114.6,105.4,115,105.1z"/>
	<path class="st1" d="M113.8,105.7c0.2,0.6,0.2,1.2-0.1,1.7C113.6,106.9,113.6,106.3,113.8,105.7z"/>
	<path class="st1" d="M110.1,107.8c0.2,0.2,0.3,1.1-0.2,0.9c0-0.2-0.1-0.4-0.2-0.4C109.7,108.1,110.1,108.1,110.1,107.8z"/>
	<path class="st1" d="M115,105.1c0.2,0.6,0.2,1.2-0.1,1.7C114.6,106.3,114.6,105.4,115,105.1z"/>
	<path class="st1" d="M113.8,105.7c0.2,0.6,0.2,1.2-0.1,1.7C113.6,106.9,113.6,106.3,113.8,105.7z"/>
	<path class="st1" d="M110.1,107.8c0.2,0.2,0.3,1.1-0.2,0.9c0-0.2-0.1-0.4-0.2-0.4C109.7,108.1,110.1,108.1,110.1,107.8z"/>
	<path class="st0" d="M2.8,97.2c-0.4,1.7-2.6,3.9-1.5,5.5c1.2,1.9,9.8-0.3,13.5-0.3c5.8,0,11.8,0.6,17.5,1.9
		c0.4-1.1,0.9-0.6,1.3-0.6c2.1,0,4.2,0,6.2,0.3c3.7,0.6,7.5,1.7,11.8,2.1c10.7,1.1,22.5,1.5,32.7,2.8c2.2,0.3,4.7,0.3,6.4,0.7
		c1.2,0.3,2.2,1.1,3.4,1.5c1.2,0.4,2.2,1.3,3.7,1.2c2.2-0.6,4.3-1.5,6.2-2.7c2.4-1.2,4.7-1.9,6.4-2.7c2.8-1.7,5.7-3.4,8.3-5.4
		c2.7-1.9,6.7-4.2,6.7-7.2c0-0.3-0.3-0.3-0.3-0.6c-0.2,0-0.3,0-0.2-0.2c1.7-7.5,0.2-13.3-0.9-18.2c-0.4-1.9-0.7-4-1.2-6
		c-1.8-7.2-4.5-14.1-7.9-20.6c-1.7-3.2-1.5-8.2-3.2-11.1c-0.3-0.4-1.2-0.9-1.9-1.7c-0.7-0.7-0.7-1.7-1.2-2.2
		c-1.7-1.7-4.7-2.6-7.2-3.4C88.5,25,73,23.3,60,17.7c-3.9-1.7-7.9-3-12-4c-1.5-0.6-3.2-0.9-4.7-0.7c-3.7,0.7-8.5,4.3-12.2,6.4
		c-6.4,3.7-10.5,7.7-17.1,10.3c-1.8,0.7-7,1.5-8.2,2.6c-1.1,1.8-1.8,3.6-2.2,5.7c-0.2,1.2,0.7,2.1,0.9,3.2c0,3-0.3,6-0.7,8.8
		c-1.1,8.8-1.3,17.6-0.9,26.4c0.2,5.2,0.4,9.8,0.2,15.6C2.9,93.4,2.9,95.2,2.8,97.2z"/>
	<path class="st1" d="M117.9,94.7c0,0.6,1.2,0.2,0.7,1.2c-2.8,2.4-6.2,4.2-9,6.6c-4.2-0.2-7.2,5.2-10.5,5.8
		c-1.1,0.2-2.6-0.7-2.4-1.2c0.3-1.1,4.3-2.4,5.5-3C107.8,101.5,113,97.6,117.9,94.7z"/>
	<path class="st1" d="M117.1,92.5c-0.2,0.3-0.3,0.4-0.6,0.6c-1.9,0-2.6-2.6-3.4-4c-1.9-3-3.9-6.4-6.2-9.4c-1.2-1.5-3-2.4-3-4.3
		c2.1,0,2.8,2.1,3.9,3.4C111,82.8,114.1,87.8,117.1,92.5z"/>
	<path class="st1" d="M117.9,79.9c-1.2-5.2-3.6-9.1-4.7-14.3c1.2,0.2,2.4,0.2,3.6-0.2C117.1,70.3,117.7,74.9,117.9,79.9z"/>
	<path class="st1" d="M113.6,94.7c-3.4-6.4-8.3-12.6-12.2-18.2c2.2-0.2,2.7,2.2,3.6,3.6c2.7,4.3,6.2,9.1,8.8,13.6
		c0.3,0,0,0.4,0.4,0.4C114.1,94.2,113.8,94.4,113.6,94.7z"/>
	<path class="st1" d="M111.3,95.9c-3.6-5.4-7-11.2-11.3-16.3c-0.4-0.6-1.7-1.1-1.2-2.2c1.7-1.1,1.9,0.4,2.4,1.2
		c3.7,4.9,7.5,11.2,11.3,16.3C112.5,95.7,111.5,95.5,111.3,95.9z"/>
	<path class="st1" d="M116.5,64.5c-1.2,0.6-4.7,0.2-4.3-1.8C114.1,62.1,116.5,62.5,116.5,64.5z"/>
	<path class="st1" d="M109.5,97c-1.5,0.6-1.9-1.1-2.2-1.7c-3.6-5.8-7.7-11.3-12-16.6c2.1-1.2,4.2,1.9,5.2,3.4
		c3.2,4.5,6.2,10.7,9.4,14.3C109.8,96.7,109.6,96.8,109.5,97z"/>
	<path class="st1" d="M115.5,60.8c-1.7,0.3-4.5,0.2-4-1.9c1.2,0.2,2.4,0.3,3.4,0.3C115.1,59.6,115,60.6,115.5,60.8z"/>
	<path class="st1" d="M111,77.4c0,0.4-0.3,0.4-0.3,0.3c-3.4-0.4-3.4-4-6.4-4.9c-0.9,0-0.6,0.9-1.2,1.1c-1.9-0.4-3.6,1.5-4.9,0.2
		c-0.7,0.4,0.2,1.1-0.4,1.3c-8.3,3.2-20,3.2-25.7,9c-1.3,0.2-2.7,0.2-4,0c-3.2-6.2-3.6-14.6-9.8-17.8c-0.2-1.5-1.2-2.2-1.7-3.4
		c0.3-0.9,0.4-1.8,0.4-2.7c10.3-4,16.6-12,25-17.8c4.9-1.2,10.6-1.7,15.2-3.2c4.5,4.3,5.7,11.6,7.5,18.4
		C106.3,64.5,108.6,71,111,77.4z M96.2,69.6c0.2,1.2,0.6,2.1,2.8,1.5C101.4,68.8,98.2,67.5,96.2,69.6z M91.3,63
		c1.2-0.3,2.1-1.5,1.9-2.7l0,0C92.4,55.9,86.2,64.3,91.3,63L91.3,63z M87.3,67.4c0.3-0.7-0.3-0.6-0.3-1.1c-1.1,0-2.1,0.4-2.8,1.3
		c-0.9,3.2,3.6,2.6,4.7,0.2C89.2,67,88.1,67.1,87.3,67.4L87.3,67.4z M85.6,55.9c0.2,0.9,1.7,0.9,2.8,0.3c0.2-0.2,0.2-0.4,0.3-0.4
		C89.6,53.2,85.8,54,85.6,55.9L85.6,55.9z M84.7,46.1c1.2,1.5,2.1,3.2,4.2,3.9C89.2,47.1,86.6,47,84.7,46.1L84.7,46.1z M82.2,48.3
		c0.2,3.2,2.6,4,4.3,5.5C87.1,51,84.4,49.3,82.2,48.3z M78.9,49.9c0.9,2.7,2.7,5.1,5.1,6.7C84.1,53.6,82,50.7,78.9,49.9L78.9,49.9z
		 M77.9,52.8c0,2.8,1.9,4,3.2,5.7c0.3,0,0.6-0.3,0.7-0.6C80.5,56.2,79.4,54.2,77.9,52.8L77.9,52.8z M70.8,65.9
		c-1.1,0.7-1.3,2.2-0.4,2.7c0.7,0,1.3-0.3,1.9-0.6C73,66.6,72.9,65.1,70.8,65.9L70.8,65.9z M68.3,63.6c1.5,0,1.9-1.3,3.2-2.1
		C74.3,54,63.2,63.6,68.3,63.6L68.3,63.6z M63.2,61.1c0.3,1.7,2.1,1.9,3.2,2.6C65.9,62.3,65.6,60.7,63.2,61.1L63.2,61.1z M60.8,62.2
		c0.7,1.8,2.4,3.2,4.2,3.9C65.3,64.1,62.7,62.2,60.8,62.2L60.8,62.2z"/>
	<path class="st1" d="M107.2,97.9c0,0.6-0.7,0.3-0.9,0.7c-3.7-5.2-9-9.1-10.6-16.3c1.3,0.7,2.4,1.9,3.2,3.2
		C101.4,89.5,104.1,94.4,107.2,97.9z"/>
	<path class="st1" d="M114.3,57.1c-1.5,0.3-4.5,0.3-4.2-1.8c1.1,0.3,2.4,0.3,3.4,0.3C114,56.1,113.8,56.8,114.3,57.1z"/>
	<path class="st1" d="M104.6,99.2c-0.3,0.6-1.2,0.7-1.7,1.2c-2.6-3.2-5.7-6.6-8.2-9.8c0-0.2-0.2-0.3-0.2-0.4
		c-1.7-3.2-1.7-7.3-4.3-9.8c-0.2,3.4,2.4,5.4,2.2,8.2c0.6,1.2,2.1,2.4,1.3,4.3c0.6,0,0.9-0.4,0.9-1.1c2.6,2.8,4.2,6.2,6.9,9
		c-1.9,0.9-3.7,2.6-5.5,2.8c-2.6-0.4-4.9-1.2-7-2.4c-0.9-0.6-0.7-1.8-1.5-1.9c0.2-0.4,0.9-0.3,0.9-0.7c-1.2-6.2-4.7-10.1-6.6-15.6
		c0.9,0,1.1-0.6,1.9-0.6c1.9,6,4.7,11.2,6.7,16.9c1.1-3.4-0.7-6.4-1.9-9.1c-1.2-2.7-2.7-5.5-3.9-7.9c0.4-0.7,1.7-0.7,2.6-1.1
		c1.5,4.9,3.2,9.6,5.4,14.3c-0.3-5.1-1.9-10-4.7-14.3c1.9-1.1,4.2-1.5,6.2-2.4c0.6,1.8,0.9,3.6,0.9,5.4c-0.4,1.2-0.4-0.6-1.7,0
		c-0.2,2.4,3.2,3,2.8,6.4c0.4,0,0.6-0.4,0.6-0.7C99.9,92.2,101.6,96.2,104.6,99.2z M94.1,95.7c1.1,2.2,2.8,4.2,5.1,5.4
		C97.8,99.1,96.1,97.2,94.1,95.7z"/>
	<path class="st1" d="M113,53.1c-0.7,0.6-4.5,0.7-4-0.9C110.1,52.5,112.5,51.9,113,53.1z"/>
	<path class="st1" d="M110.8,48.2c-1.3,0.3-2.7,0.2-3.9-0.4C108.1,47.1,110.4,47.3,110.8,48.2z"/>
	<path class="st1" d="M109.6,45.3c-1.2,0.4-2.7,0.2-3.7-0.6C107.2,44.8,108.6,44.8,109.6,45.3z"/>
	<path class="st1" d="M105.7,36.9c-0.6,0.4-2.6,0.6-1.9-0.6c0.4,0,0.9,0,1.1-0.4C105.6,35.9,105.1,36.9,105.7,36.9z"/>
	<path class="st1" d="M89.5,104.6c-4.5,0.2-9-1.3-13.9-1.3c1.2-1.7,1.7-3.6,1.3-5.7c-1.9,0.9-1.8,4-1.8,5.5
		c-5.7-0.6-10.9-1.2-16.4-1.9c-0.2-0.7,2.6-3.2,3.7-4.5c5.2-0.3,9.4-1.3,12.4-4.3c3.6,2.4,6.2,5.7,10.6,7.3
		C85.6,101.7,87.7,103.4,89.5,104.6z M72.8,96.4c-1.7,0-1.3,1.9-0.3,1.9C72.3,97.2,72.9,97.2,72.8,96.4L72.8,96.4z"/>
	<path class="st1" d="M82.8,92.9c-0.2,0.6-0.3,0.3-0.6,0.3c-0.7-1.1-1.8-1.9-3-2.6c0.7-2.6-1.2-4.2-2.2-5.8c0.6-0.4,1.2-0.7,1.9-0.9
		C79.6,87.1,80.9,90.1,82.8,92.9z"/>
	<path class="st1" d="M92.2,37.4c-4.5,1.7-8.1,1.1-11.8,2.7c-3.7,1.6-6.7,5.2-9.7,7.7C64.8,52.9,58.6,57.2,52,61
		c-3.6,0.2-7.2,1.1-10.5,2.7c-1.7-3.7,2.1-12.2-0.3-15.2c0.9-1.3,0.6-3.2-0.7-4c1.9-5.8,1.7-12.1-0.7-17.8c4.2-1.9,8.5-3.7,12.8-5.2
		c2.7,1.9,5.5,3.6,8.5,4.7c-2.4,1.3-5.2,2.2-7.7,3.6c-0.9,0,0-1.9-1.3-1.5c-2.4,0.4-1.7,2.4-1.9,3.2c-1.1,0.6-2.1,0.7-3.2,0.7
		c-0.4,1.1,0.7,0.9,1.5,0.9c-1.9,2.2,0.3,3.6,1.8,3.2c1.3-0.3,2.2-1.7,2.1-3c-0.2-0.6-0.3-1.1-0.7-1.3c3.4-0.4,7.9-4.5,11.5-4.7
		c1.9-0.2,5.2,2.1,7,2.8C77.2,32.8,85.3,35.4,92.2,37.4z M59.3,42.5c1.3-0.7,2.1-2.2,1.7-3.7C59.3,34.3,53.3,45,59.3,42.5L59.3,42.5
		z M58,32.4c-0.9,0.7-1.2,2.1-0.6,3.2C59.9,35.9,61.1,31,58,32.4L58,32.4z M48,45.3c2.7,1.3,5.8,2.1,8.8,1.9
		c0.2-0.2,0.3-0.3,0.3-0.4C54.8,45.8,51.2,43.5,48,45.3L48,45.3z M47.5,48c2.7,1.7,5.7,2.4,8.8,2.4c0-0.3,0.2-0.4,0.2-0.7
		C53.3,49.3,51.2,47.1,47.5,48L47.5,48z M48,50.8c1.2,1.3,4.2,1.2,6.2,1.7C53.7,50.6,50.3,50.4,48,50.8L48,50.8z M47.1,54
		c0.9,1.7,3.6,1.5,6.2,1.5c0-0.3,0.2-0.4,0.2-0.7C51.6,54.2,49.5,53.2,47.1,54z"/>
	<path class="st1" d="M75.3,88.6c-1.2,0-2.2-0.6-3-1.5c0.4-0.4,1.3,0,1.9-0.6C74.4,87.3,75.3,87.7,75.3,88.6z"/>
	<path class="st1" d="M73,90.4c-2.2,3.2-6.7,1.5-10.1,2.8c0.6-1.7,1.5-3,2.2-4.5C67.4,89.7,70.5,89.8,73,90.4z"/>
	<path class="st1" d="M50.7,20.4c-4,1.5-7.9,3.2-12,4.9C42,23.2,46.8,20.1,50.7,20.4z"/>
	<path class="st1" d="M46.5,19.4c-2.7,1.5-6.2,2.4-8.8,3.9c-0.9,0-0.7-0.7-0.9-1.3c-1.2,0.4,0.2,0.9,0,1.8
		c-7.9,4.7-15.4,9.4-25.7,11.8c5.1-4.7,12.4-6.7,18.8-10.3c1.9-1.1,4-3,5.8-3.7C39.2,20,42.9,20.2,46.5,19.4z"/>
	<path class="st1" d="M37.2,26c-1.5,1.2-3.2,1.9-4.9,2.6C33.9,27.3,35.4,26.5,37.2,26z"/>
	<path class="st1" d="M7.1,91.4c0.6-4.2-0.2-7.2-0.2-10.9C10.1,80.9,9.6,88.4,7.1,91.4z"/>
	<path class="st1" d="M9.3,79.2c-1.9,0-2.7-2.6-2.7-4.7C9,74,9.7,76.5,9.3,79.2z"/>
	<path class="st1" d="M9.3,72c-0.9,0.4-2.6-1.5-2.6-3.2C8.2,69.2,9.2,70.5,9.3,72z"/>
	<path class="st1" d="M8.9,66.4c-2.8,0.2-0.3-7-0.2-9.6C8.7,60,8.7,63.1,8.9,66.4z"/>
	<path class="st1" d="M112.6,81.2c-0.6-0.2-2.2-1.5-1.7-2.8C111.9,78.9,112,80.4,112.6,81.2z"/>
	<path class="st1" d="M103.1,33.9c-7.2,1.9-11.2-1.3-15.6-3.2l-11-4.4C85.4,28.3,94.4,30.9,103.1,33.9z"/>
	<path class="st1" d="M87.1,98.3c-1.2,0.3-1.7-1.9-1.9-3.2C85.9,95.3,86.2,97.6,87.1,98.3z"/>
	<path class="st1" d="M81.1,85.9c0.2,0.3-1.5-1.9-1.2-2.4C80.9,83.8,80.9,85,81.1,85.9z"/>
	<path class="st1" d="M78.7,89.8c-1.1,0.6-1.1-1.3-1.9-1.7C77.7,87.8,77.9,89.5,78.7,89.8z"/>
	<path class="st1" d="M32,94.6c-3.2-0.9-3-7.5-3.7-11.6c-0.7-3.9-1.5-6.9-2.1-10.6c-1.9,0.7-0.6,3.6-0.4,4.9
		c0.7,4.7,1.9,10.1,3,14.6c-2.6-1.8-1.9-6-2.6-9.2c-0.6-3.2-1.5-6.2-2.6-9c-1.7,1.3-0.3,3,0,4.2c1.2,4.3,1.9,8.8,2.2,13.3
		c0.9,0.9,0.4,3.2,1.3,4.2c0.7-0.4,0.3-1.7,0.2-1.9c2.2,1.2,4.3,4.3,6.2,6.4c-3.4,0-6.9-1.5-9.1-4c-1.2-1.3-3.2-2.7-3.7-4
		c-0.3-1.7-0.4-3.2-0.4-4.9c-0.7-4.5-1.9-9-2.4-13.6c-1.5,2.1-0.3,6.2,0.3,9.6c0.6,3.4,1.7,6.2,1.2,9c0.3,1.1,1.3,1.5,1.1,2.8
		c1.1-0.4,1.5,0,2.2,1.1c-1.1,0.2-2.7-0.7-3.7-0.9c0.6-8.5-2.7-14.5-2.6-22.1c-0.4-0.4-0.9-0.4-1.7,0c0.2-2.6-0.4-4.3-0.3-7
		c3.4,1.9,8.3,2.4,11.6,4.3c0.7-0.3-0.4-0.3,0-0.9c7.3,1.1,16.4-3.2,24.5-3.4c0.7,1.9,2.7,2.7,4.2,3.7c-0.3,3.2,1.7,4.2,2.7,6.2
		c-0.2,5.2,3.2,7,5.1,10.5c-1.3,4.3-4,7.5-4.5,12.7c-3,3.7-7.5,2.2-12.4,1.9c-3.2-0.2-6.2-0.3-8.8-0.4c-1.8-2.6-5.2-3.4-4.3-8.3
		c1.1,0.3,1.2,1.5,1.1,2.8c0.6,0.3,0.9-1.1,0.4-0.9c1.2,0,2.1,0.9,2.1,2.1c0,0.2,0,0.3,0,0.4c1.7-0.7,1.7,0.9,2.8,1.1
		c0.4-3.4,0.4-6.9,0-10.3c1.9-0.9,2.4,4.3,1.7,6.7c1.1-0.9,1.1-3.2,1.1-4.3c1.3-0.6,2.1,2.6,3.7,3c-0.7-2.2-1.9-4.5-3.6-6.2
		c0-5.4-1.2-9.6-1.2-14.9c-1.3,0.4-1.1,1.9-1.2,2.6c-0.4,3.6,1.5,7.3,0.6,10.6c-1.7,0.7-1.1-1.7-1.2-2.4c-0.3-3-0.9-7.2-1.5-10
		c-1.8,1.7-1.2,4.7-0.9,6.6c0.4,5.7,1.3,12,2.1,17.6c-2.2-1.2-1.5-4.9-1.8-8.2C36.3,82.8,35,77.2,34.3,72c-2.2,1.1-1.1,3.7-0.9,5.2
		c0.6,5.2,1.7,11.1,2.6,15.8c-0.6,0.9-1.3-0.9-1.9-1.2c0-5.5-0.6-11.1-1.9-16.3c-0.3-1.7-0.7-3.2-1.5-4.7c-0.9,3.2,0.3,6.6,0.7,9.7
		c0.4,3.2,1.1,6.5,1.5,9.6c-1.9-5.8-2.4-12.8-4-18.8c-1.7,1.5-0.6,3.6-0.4,4.9c0.7,4.5,1.9,9.4,2.4,14.1
		C31.3,91.2,31.1,93.2,32,94.6z M55.4,92.2c-0.2-2.7-1.2-5.2-2.8-7.2c-0.9-1.3-1.7-3.4-3.7-3.6c-0.9,1.3,0.6,2.2,1.1,2.8
		c1.3,1.8,2.4,3.7,3.4,5.8c0.4,1.1,0.7,2.4,1.9,2.8C55.4,92.9,55.4,92.7,55.4,92.2z M53.7,76.8c0.3,0,0.4,0.3,0.4-0.3
		c-1.5-1.5-0.7-5.1-3.2-5.7C51.2,73.4,52.9,74.6,53.7,76.8L53.7,76.8z M49.6,92.9c-0.3-2.2-1.2-4.5-2.8-6.2
		c-1.1-1.3-1.9-3.2-3.9-3.4c0,2.1,1.7,3.4,2.8,5.1c1.5,1.5,2.6,3.2,3.2,5.2C49.2,93.2,49.6,93.2,49.6,92.9L49.6,92.9z M45.9,74.7
		c-0.3,1.9,3,2.4,4.2,1.9C48.4,76.1,48.6,74,45.9,74.7L45.9,74.7z M45.4,71.3c0.4,1.9,2.6,2.2,4.2,3.2
		C49.5,72.2,47.8,71.3,45.4,71.3L45.4,71.3z M20.8,71.7c-1.5,4-0.3,7.5,0.3,10.9c0.3,1.7,0.6,3.4,0.9,5.1c0.3,1.7,0.7,3.2,1.5,4.7
		C24,85.3,23.1,78.3,20.8,71.7L20.8,71.7z"/>
	<path class="st1" d="M38.4,48.2c-3-3.4-5.5-7.2-9.6-9.7c-0.3,1.5,1.3,2.1,2.1,3l2.6,2.8c1.9,1.8,3.4,4,4.2,6.6
		c-0.7,0.6-1.2-0.4-1.5-0.9c-3-3.2-6.2-7.7-10.7-9.6c3.9,4.7,8.2,8.7,11.8,13.6c-0.3,0.7-0.3,1.5-0.2,2.2
		c-4.2-4.2-7.5-9.2-12.6-12.7c0.2,1.7,1.7,2.7,2.8,3.9c3.2,3.6,6.6,7.7,9.8,11.3c-0.2,1.3,0.6,1.7,0.2,3.2
		c-3.9-5.2-8.5-10-13.6-14.1c4.5,6.2,10.5,11.9,14.9,17.3c-1.9-0.2-4.2,1.2-6.2,0.9c-1.1-0.2-2.6-2.6-3.4-3.4
		c-3.2-3.7-6.6-7-10.5-9.7c3.2,5.1,9,9,12.1,13.5l-3.2,0.4c-1.5-2.2-3.2-4.2-4.9-6c-1.7-2.1-3.7-3.9-6.2-4.9
		c0.2,2.6,3.2,3.7,4.7,5.7c1.8,1.7,3.2,3.6,4.7,5.7c-1.9-0.2-3-1.9-4.2-3.2c-1.2-1.2-2.1-2.8-3.9-2.8c0,2.2,3.2,3.2,4.2,5.1
		c-2.6,0.3-4.9-1.2-8.1-0.9c-0.2-9.6,0.9-20-2.1-27c8.5-3.2,17.5-6.2,25.4-10c4.5,2.1,0.2,13,0,18.6C37.4,47.6,38.4,47.3,38.4,48.2z
		 M34.7,64.6c0,0.3,0.3,0.2,0.3-0.3c-3.2-4.7-7-9.1-11.5-12.8c-1.2-1.5-3-2.7-4.7-3.2C23.8,54,29,59.5,34.7,64.6z M32.4,39.2
		c-2.1-1.3-3.4-5.8-6.7-4.7c1.9,1.9,4.2,3.7,6.6,5.4C32.4,39.7,32.4,39.4,32.4,39.2z"/>
	<path class="st1" d="M18.3,93.5c-1.3,1.1-1.8-1.8-3.2-1.7c-1.8,0.7,1.3,1.3-0.2,1.8c-0.9-0.4-1.8-0.7-2.7-0.9
		c0.3-2.6,1.1-4.7,1.5-7c0.7,0.4,0.6,1.7,1.3,1.9c-0.2-3.7-1.1-6.9-0.4-11.2C16.1,81.9,16.5,88.4,18.3,93.5z"/>
	<path class="st0" d="M36.9,81c2.4,0,4.7,0.3,7,0.7c0.2-0.4,0.3-0.3,0.6-0.3c0.9,0,1.7,0,2.6,0.2c1.5,0.3,3,0.7,4.7,0.9
		c4.3,0.4,9,0.6,13.1,1.2c0.9,0.2,1.9,0.2,2.6,0.3c0.4,0.2,0.9,0.3,1.5,0.6c0.6,0.2,0.9,0.6,1.5,0.4c0.9-0.3,1.7-0.6,2.6-1.1
		c1.1-0.4,1.9-0.7,2.6-1.1c1.2-0.6,2.2-1.3,3.2-2.2c1.1-0.7,2.7-1.7,2.7-2.8c0-0.2-0.2-0.2-0.2-0.3c0-0.2-0.2,0-0.2,0
		c0.4-2.4,0.3-4.9-0.3-7.3c-0.2-0.7-0.3-1.7-0.4-2.4c-0.7-2.8-1.8-5.7-3.2-8.3c-0.6-1.3-0.6-3.2-1.3-4.5c-0.2-0.2-0.4-0.4-0.7-0.7
		s-0.3-0.7-0.4-0.9C74,52.7,73,52.2,72,51.9c-5.2-2.2-11.5-2.8-16.7-5.1c-1.7-0.6-3.2-1.2-4.7-1.7c-0.6-0.3-1.2-0.3-1.9-0.3
		c-1.8,0.6-3.4,1.5-4.9,2.6c-2.2,1.7-4.5,3-6.9,4.2c-1.2,0.3-2.2,0.6-3.2,1.1c-0.4,0.7-0.7,1.5-0.9,2.2c0,0.4,0.3,0.9,0.3,1.3
		c0,1.2-0.2,2.4-0.3,3.6c-0.4,3.6-0.6,7-0.3,10.6c0,2.1,0.2,3.9,0,6.2c0,0.7,0,1.5,0,2.2c-0.2,0.6-1.1,1.5-0.6,2.2
		C31.9,81.9,35.4,81,36.9,81z"/>
	<path class="st1" d="M41.8,76.5c1.7,0,3.2,0.2,4.9,0.6c0.2-0.3,0.3-0.2,0.3-0.2c0.6,0,1.2,0,1.9,0.2c1.1,0.2,2.1,0.4,3.2,0.6
		c3,0.3,6.2,0.4,9.1,0.7c0.6,0.2,1.3,0.2,1.9,0.3c0.6,0.2,0.6,0.3,1.1,0.4c0.3,0.2,0.6,0.4,1.1,0.3c0.6-0.2,1.2-0.4,1.8-0.7
		c0.6-0.3,1.3-0.6,1.9-0.7c0.7-0.4,1.7-0.9,2.4-1.5c0.7-0.4,1.9-1.2,1.9-1.9c0,0-0.2,0-0.2-0.2c0-0.2-0.2,0,0,0
		c0.3-1.7,0.2-3.4-0.3-5.1c-0.2-0.6-0.3-1.2-0.3-1.7c-0.4-1.9-1.2-3.9-2.2-5.8C70,61,70,59.6,69.5,58.7c0-0.2-0.3-0.3-0.4-0.4
		c-0.2-0.2-0.2-0.4-0.3-0.6c-0.6-0.4-1.3-0.7-1.9-1.1c-3.6-1.5-7.9-1.9-11.6-3.6c-1.1-0.4-2.2-0.9-3.2-1.2c-0.4-0.2-0.9-0.3-1.3-0.3
		c-1.2,0.4-2.4,1.1-3.4,1.9c-1.4,1.1-3.1,2.2-4.7,2.9c-0.7,0.2-1.5,0.4-2.2,0.7c-0.3,0.4-0.4,1.1-0.6,1.7c0,0.3,0.3,0.6,0.3,0.9
		c0,0.9,0,1.7-0.2,2.6c-0.3,2.4-0.3,4.9-0.3,7.3c0,1.5,0.2,2.7,0,4.3c0,0.4,0,1.1,0,1.5c-0.2,0.4-0.7,1.1-0.4,1.5
		C38.6,77.3,40.9,76.5,41.8,76.5z"/>
</g>
</svg>
